<svg version="1.1" id="Layer_1" xmlns="http://www.w3.org/2000/svg" xmlns:xlink="http://www.w3.org/1999/xlink" x="0px" y="0px"
	 width="100%" viewBox="0 0 420 227" enable-background="new 0 0 420 227" xml:space="preserve">
<path fill="#000000" opacity="1.000000" stroke="none" 
	d="
M304.000000,228.000000 
	C204.000031,228.000000 104.500038,227.977417 5.000220,228.095566 
	C1.576353,228.099625 0.897705,227.424683 0.903665,223.999939 
	C1.030697,151.000198 1.030678,78.000107 0.903706,5.000355 
	C0.897751,1.576258 1.575683,0.902244 4.999887,0.905021 
	C142.333084,1.016430 279.666382,1.016413 416.999573,0.905094 
	C420.422638,0.902319 421.102325,1.574625 421.096375,4.999827 
	C420.969299,77.999580 420.969360,150.999664 421.096283,223.999420 
	C421.102234,227.423004 420.427185,228.113205 417.000000,228.098816 
	C379.500519,227.941177 342.000153,228.000000 304.000000,228.000000 
z"/>
<path fill="#54440B" opacity="1.000000" stroke="none" 
	d="
M149.233673,112.542267 
	C149.020798,113.987465 149.008835,115.031006 148.997330,116.465912 
	C150.075409,122.256256 149.171524,127.722000 149.733490,133.559784 
	C149.920334,133.974930 149.993958,134.462189 149.996643,134.708557 
	C150.942917,136.290878 150.264648,137.831421 150.714340,139.576874 
	C150.919250,140.068954 150.951141,140.235657 150.990692,140.656830 
	C151.782730,141.526520 152.081604,142.562973 153.315918,143.412399 
	C154.850449,141.431122 155.132141,139.027695 155.646332,136.731674 
	C158.099915,125.775406 158.990234,114.542274 161.503082,103.597420 
	C162.012222,101.379913 162.142136,98.954025 164.630676,97.317612 
	C167.590546,95.571175 169.759048,96.545570 171.910706,98.738289 
	C172.902451,100.389114 172.277695,101.884560 172.737305,103.581039 
	C172.952698,105.985718 172.974365,108.087212 173.010773,110.638855 
	C173.982727,112.737640 173.232727,114.556282 173.719864,116.602936 
	C173.902878,117.129654 173.907303,117.322945 173.863586,117.802216 
	C173.136002,120.765976 173.614578,123.483467 173.689148,126.519806 
	C173.878250,127.039520 173.916031,127.221329 173.976166,127.680786 
	C174.895264,128.805878 174.868317,131.097565 177.243744,129.626892 
	C180.610382,122.148430 181.817245,114.421890 183.416534,106.818611 
	C184.105255,103.544281 184.883514,100.372040 186.775360,97.145943 
	C187.019394,96.841827 187.018448,96.394623 187.062286,96.175354 
	C189.063431,95.077850 191.116165,95.657654 193.520111,95.747948 
	C197.110336,98.691505 197.377045,102.332001 196.992676,106.602043 
	C199.265945,109.555916 198.116684,112.658531 198.439301,115.895058 
	C198.464783,116.775780 198.502731,117.271774 198.660400,118.113960 
	C198.788239,118.696808 198.825012,118.931152 198.880249,119.514603 
	C198.886261,120.091835 198.873840,120.319984 198.810913,120.881210 
	C198.293381,122.891068 198.114914,124.572571 198.776947,126.578949 
	C198.936752,127.104721 198.996994,127.317795 199.136566,127.856247 
	C199.357910,129.077271 199.550186,129.960556 199.972656,131.148712 
	C200.981552,136.183456 202.364960,140.761307 203.757233,145.698700 
	C204.247116,147.446884 204.573227,148.874634 204.884796,150.671432 
	C204.726746,151.211960 204.583252,151.383438 204.216980,151.805664 
	C203.994217,152.056396 204.000198,151.994125 204.030304,152.002594 
	C198.932571,155.086853 194.122833,152.786911 192.028854,145.988449 
	C190.917221,142.379440 190.074219,138.687210 188.551910,134.659256 
	C187.289871,136.155350 187.181366,137.824661 186.398834,139.532135 
	C186.178574,140.085251 186.072174,140.300095 185.738693,140.795410 
	C184.551178,141.800491 183.653519,142.678894 181.924362,142.334747 
	C181.105545,142.155731 180.653351,142.006973 179.894745,141.679382 
	C177.268280,140.156860 174.934570,140.082077 172.260590,141.539154 
	C171.290436,141.895172 170.620300,141.946228 169.626312,141.740723 
	C168.205795,141.048294 167.605820,139.910553 166.462250,138.964172 
	C166.063416,138.777527 166.176025,138.188507 165.900879,138.766663 
	C166.374969,140.405396 166.281479,141.781433 165.765686,143.418121 
	C165.522186,144.030487 165.383698,144.372940 165.187378,144.970718 
	C165.120331,145.396347 165.118423,145.569595 165.110489,146.002625 
	C164.597488,147.388855 164.090500,148.515259 163.328217,149.820251 
	C161.284241,152.765427 161.411423,156.899353 156.935822,158.084259 
	C153.592697,157.855759 150.653656,157.555283 147.339600,157.144424 
	C143.316483,155.304794 142.379135,151.708618 141.899368,148.363174 
	C140.769226,140.482910 138.945541,132.642410 139.614075,123.897636 
	C138.005386,128.097504 138.893692,132.274612 136.241821,135.806946 
	C135.983932,136.067062 135.940933,136.547333 135.900620,136.785034 
	C133.882614,140.203247 134.330704,144.920822 129.522583,146.377899 
	C128.416306,145.407913 127.699059,144.469864 126.380630,144.493332 
	C126.990746,145.041046 127.909233,144.987701 128.750610,145.797745 
	C127.228264,149.819077 123.598053,150.134933 120.202927,146.844574 
	C118.012733,144.721970 117.357475,141.689896 115.534691,138.692749 
	C113.865646,141.594910 112.220352,143.947418 110.375687,146.624359 
	C105.721199,150.971527 102.994911,151.372467 98.590225,148.246277 
	C98.851303,145.890961 100.559166,146.048431 101.942833,145.670273 
	C103.879150,145.141052 103.874603,145.124420 105.732216,142.464478 
	C102.583717,142.971207 99.709229,141.527512 96.621719,143.441406 
	C93.082268,142.781357 92.927017,140.050430 92.671577,137.656418 
	C91.581322,127.438522 93.805359,117.881805 98.678177,108.870125 
	C101.022110,104.535301 104.805023,102.010559 109.483162,99.878189 
	C110.942459,99.413139 112.042168,99.516617 113.517387,99.718155 
	C115.716675,102.065819 119.634468,99.869957 120.948593,103.593170 
	C122.060036,106.618774 121.192787,109.406654 121.702011,112.495262 
	C121.905510,113.049187 121.946999,113.222481 121.997406,113.662918 
	C123.047119,116.582253 122.204247,119.356766 122.682724,122.439224 
	C123.209206,123.618065 123.586884,124.412811 124.021660,125.535049 
	C124.931633,127.304192 125.031258,129.015411 125.895416,131.003830 
	C127.923981,126.031555 128.732285,121.142288 129.305618,116.321175 
	C130.209900,108.717171 131.115891,101.119720 132.742493,93.643303 
	C133.519531,90.071877 132.825409,88.123177 128.492981,88.198318 
	C125.702133,87.424644 123.721001,85.879417 121.650192,84.524895 
	C118.972351,82.773300 119.703293,81.514954 122.334747,80.588570 
	C126.218384,79.221359 130.447891,78.980461 134.358994,76.699585 
	C134.729309,76.266930 134.867188,76.088371 135.218933,75.655762 
	C137.037537,74.021088 136.566879,72.372192 135.953003,70.381363 
	C135.559967,68.351234 135.549805,66.661041 136.075043,64.620186 
	C136.537003,63.328396 137.320465,62.588474 137.385529,61.142723 
	C137.693237,56.116703 136.708817,51.349003 139.022034,46.546703 
	C139.593018,45.766800 140.011932,45.422844 140.867752,45.009743 
	C143.818527,44.685394 145.652145,42.244202 148.713654,42.665562 
	C149.052444,42.838619 149.084946,42.920055 149.047180,42.942307 
	C150.150925,51.638943 149.121552,60.357357 149.703094,69.483704 
	C155.127441,72.022682 159.791809,68.827332 164.734619,68.168961 
	C167.271667,67.831039 169.710861,66.758591 172.586090,66.015457 
	C174.957458,65.010750 177.058975,65.685677 179.497955,65.775101 
	C179.893082,65.982697 179.980164,66.464691 180.001862,66.708626 
	C179.597076,67.464966 180.168961,66.808006 179.754227,67.329956 
	C179.339493,67.851906 178.940720,68.073975 179.463120,67.711372 
	C179.633331,67.593239 179.945923,67.813095 179.862473,67.159027 
	C181.379761,67.782051 182.643066,68.662979 182.859100,70.724205 
	C181.371292,74.394676 178.709686,75.820122 175.203278,76.509430 
	C168.912064,77.746178 162.781326,79.697029 156.557098,81.249481 
	C153.812347,81.934082 151.219849,83.026810 149.632568,86.108932 
	C149.450562,88.083298 149.551498,89.687309 149.214584,91.630997 
	C149.004593,96.024513 149.007812,100.074486 149.016998,104.591568 
	C149.972305,107.372108 149.318558,109.778725 149.233673,112.542267 
z"/>
<path fill="#53450B" opacity="1.000000" stroke="none" 
	d="
M72.659950,123.383942 
	C74.593491,127.401680 74.210274,131.565826 75.596634,135.657700 
	C77.429604,137.563599 76.903687,139.993744 78.224640,142.153931 
	C80.381187,116.802811 78.894012,91.749275 79.349510,66.728500 
	C79.400543,63.924755 78.994354,61.055000 80.593506,58.046547 
	C86.375114,57.308624 89.869759,60.216763 89.975601,65.442657 
	C90.170998,75.090866 89.740135,84.744713 90.315346,94.845024 
	C90.652267,102.819069 90.275917,110.344963 90.733910,118.326172 
	C90.567848,124.224327 90.837769,129.664856 90.720329,135.102341 
	C90.674156,137.240173 90.799438,139.412964 89.346138,141.712006 
	C89.006012,142.046127 88.980286,142.518448 88.960136,142.754105 
	C88.639160,143.358978 88.499237,143.784546 88.493484,144.606216 
	C88.468613,146.120178 88.549477,147.288391 88.195328,148.732590 
	C87.976799,149.194885 87.968697,149.375732 87.915855,149.824387 
	C87.054932,152.164215 87.748253,154.344345 87.197472,156.789490 
	C86.979309,157.128006 86.972496,157.580963 86.960144,157.807129 
	C86.543930,159.618591 87.200531,161.649734 84.709305,162.487595 
	C82.756615,161.814529 81.703270,159.275223 79.124695,161.255524 
	C80.097595,162.630219 82.016785,162.469421 83.225784,163.904083 
	C83.801239,165.723328 82.948128,166.629120 81.481110,167.592834 
	C77.528824,168.955673 74.831436,167.594604 72.420479,164.452377 
	C71.911964,163.693466 71.665680,163.238602 71.302124,162.420746 
	C70.613678,160.461914 70.316383,158.786880 69.807739,156.801788 
	C69.652977,155.273758 69.218475,154.228790 68.343040,152.979065 
	C67.652237,151.324097 67.649078,149.898438 67.491577,148.145493 
	C67.510017,146.804291 66.928230,146.057220 66.313583,144.941284 
	C65.641212,143.255173 65.617767,141.821274 65.567749,140.043030 
	C65.567924,138.355865 65.761101,136.978470 64.617752,135.535492 
	C64.242401,134.816238 64.081276,134.379807 63.876259,133.585754 
	C63.763584,133.007980 63.730106,132.774719 63.668167,132.189667 
	C63.619072,131.372025 63.614559,130.906036 63.622623,130.095428 
	C63.769653,127.210358 63.373409,124.814140 61.589668,122.444275 
	C61.012051,121.308311 60.902798,120.411667 60.946739,119.162148 
	C61.082935,117.995575 61.300415,117.166153 61.101906,115.999252 
	C60.916767,115.060303 60.831459,114.425262 60.675884,113.470085 
	C60.555691,112.483597 60.358295,111.850159 60.082718,110.884262 
	C59.824226,109.882912 59.728748,109.199265 59.626987,108.164597 
	C59.427025,105.334084 58.711147,102.932259 58.440659,100.298592 
	C57.619156,104.125069 57.077831,107.821701 57.693520,111.926620 
	C57.863693,112.468773 57.919151,112.688278 58.029999,113.240417 
	C58.155689,114.231453 58.139099,114.889534 58.034927,115.860130 
	C57.866467,116.778008 57.673031,117.360924 57.204880,118.474136 
	C56.982552,120.104050 56.972202,121.183060 56.927536,122.665298 
	C55.946938,129.398270 56.813358,135.772125 56.213665,142.516647 
	C55.971695,143.105835 55.945641,143.293945 55.857170,143.759949 
	C54.397583,146.105789 52.648678,147.617783 49.980957,146.765564 
	C47.080597,145.839035 45.931694,143.375092 45.623844,140.631744 
	C44.974155,134.842209 44.990219,128.983109 45.410610,123.212303 
	C46.518978,107.997498 46.745453,92.701225 49.280239,77.604340 
	C49.757236,74.763390 50.281708,72.014282 53.358261,70.081154 
	C55.224781,69.277023 56.755161,69.564232 58.665707,69.785454 
	C62.482880,69.852669 62.346867,72.737633 62.958752,74.776611 
	C66.749268,87.407745 68.851982,100.398514 71.027924,113.372025 
	C71.297806,114.981079 71.693016,116.569099 72.022049,118.578697 
	C72.920952,120.254433 72.283958,121.713120 72.659950,123.383942 
z"/>
<path fill="#53450E" opacity="1.000000" stroke="none" 
	d="
M321.207092,169.641815 
	C322.326721,172.502243 319.772614,174.271378 319.423706,176.764435 
	C315.475586,181.230759 313.539856,186.721680 309.547119,190.751251 
	C305.428955,194.907410 300.849579,198.399612 294.832184,200.275406 
	C292.584381,200.317749 290.930420,200.817673 289.614990,202.805328 
	C288.320343,203.929886 287.132965,204.124557 285.487976,203.653702 
	C284.726959,203.177292 284.435303,202.771713 284.198975,201.914673 
	C284.147308,201.309113 284.161591,201.068146 284.275879,200.486130 
	C286.947723,198.305054 284.525604,195.593491 285.749268,193.227844 
	C285.959778,192.974243 285.983765,192.995392 285.983704,192.979752 
	C286.176758,192.844238 286.369843,192.724380 286.888306,192.503632 
	C289.114044,191.649323 290.736664,190.398209 292.751343,189.188293 
	C292.979523,188.935760 293.001801,188.992722 292.972656,188.983475 
	C295.437866,187.875397 297.737000,186.451996 300.175995,184.612152 
	C301.372833,183.868301 302.478729,183.524948 302.999451,182.025543 
	C304.455536,178.824005 306.029388,176.071259 307.701447,173.398117 
	C315.913239,160.270248 310.547302,144.182373 300.797546,134.885666 
	C292.911072,127.365601 283.118103,124.540985 273.396362,121.154144 
	C271.395477,120.457077 269.055603,120.353439 267.786957,117.799545 
	C273.355011,114.030846 268.040833,112.106987 266.489471,109.333054 
	C265.684387,107.050613 266.458923,105.460449 267.704102,104.029785 
	C272.138916,98.934502 276.529236,93.797173 281.669128,88.918335 
	C281.793488,88.329788 283.293579,88.184364 281.751770,87.792465 
	C278.426117,88.642433 275.769806,90.515579 272.295105,90.989105 
	C271.116608,91.012177 270.260284,90.969505 269.161560,91.486221 
	C268.419312,91.714699 267.975708,91.757248 267.185791,91.691917 
	C266.170898,91.428139 265.568695,91.084335 264.752075,90.423492 
	C263.537964,88.898636 262.364655,87.833885 261.198425,86.733795 
	C258.847931,84.516571 258.035919,86.138199 256.917694,88.287308 
	C252.057281,87.948715 252.938507,84.972466 253.855988,81.683006 
	C254.172928,81.100677 254.332077,80.886368 254.761887,80.376976 
	C255.032547,80.081894 255.468689,80.026909 255.687531,80.006424 
	C258.978882,78.951653 262.407715,79.256485 265.625732,77.325974 
	C273.182953,74.214020 280.854340,72.863625 288.629608,70.901443 
	C290.238892,70.068184 291.743439,70.722221 293.467957,70.336906 
	C294.922302,70.154579 296.041351,70.103889 297.579407,70.090317 
	C300.223846,72.141380 299.213043,77.062553 304.202148,77.062012 
	C304.503723,78.043610 304.497681,78.752373 304.182434,79.748779 
	C303.386780,86.403442 297.858398,89.479614 294.429016,93.850029 
	C290.578705,98.756859 285.684509,102.831024 281.795227,107.794800 
	C279.353973,110.910515 279.707794,112.871658 283.727264,113.727280 
	C291.140320,115.305305 297.555389,118.830765 303.468872,123.298531 
	C311.947144,129.704086 318.424988,137.628189 320.985748,148.631653 
	C322.051605,150.988083 321.192719,153.130676 321.697266,155.526962 
	C321.885223,156.075348 321.915436,156.264236 321.981934,156.737732 
	C322.910797,158.698334 322.352509,160.490524 322.224426,162.620865 
	C321.993408,163.195770 321.973511,163.381165 321.897919,163.840637 
	C321.121643,165.809570 321.696838,167.606354 321.207092,169.641815 
z"/>
<path fill="#54450F" opacity="1.000000" stroke="none" 
	d="
M284.711304,200.754959 
	C284.994171,201.423584 284.996887,201.864868 285.000397,202.637115 
	C283.813538,205.108093 281.652069,205.741119 279.544373,206.023849 
	C263.267181,208.207245 248.368423,205.627975 235.148712,194.788452 
	C219.661469,182.089722 215.207886,154.075409 234.790924,139.343094 
	C236.933548,137.113617 239.574951,138.605621 241.845245,137.238068 
	C244.052017,136.105789 246.114716,136.643219 248.533859,136.759567 
	C249.218491,137.130661 249.509369,137.306427 249.936829,137.702240 
	C250.480164,139.070969 249.852798,140.685516 251.524338,141.264999 
	C256.215210,142.891205 258.455902,147.113708 261.682098,150.793823 
	C262.106781,151.178360 262.271881,151.337311 262.684692,151.734619 
	C262.956573,152.144165 262.980743,152.315369 263.014343,152.745743 
	C263.847809,154.335983 263.385590,155.792664 263.222778,157.574860 
	C262.989319,158.425293 262.966370,158.900391 262.896423,159.729126 
	C261.189209,165.891327 258.872803,171.085510 251.460938,171.759247 
	C250.632050,171.460373 250.210968,171.192673 249.569824,170.601410 
	C247.842072,167.244888 244.477951,169.098572 242.067078,167.458313 
	C240.273285,164.537460 242.004211,162.926010 244.072372,161.109924 
	C245.085327,160.542892 245.818375,160.560089 246.908127,160.765228 
	C250.990280,160.119324 252.774277,157.020523 251.818375,152.907455 
	C250.950119,149.171494 248.356369,147.294220 245.056183,148.012054 
	C243.557236,148.338089 242.302170,149.109665 240.912491,150.337402 
	C238.550339,151.648346 237.037155,153.182205 236.772949,156.016357 
	C236.601746,157.256790 236.363007,158.133698 235.974442,159.323517 
	C232.799805,163.656647 234.126511,168.160812 234.235718,172.838593 
	C235.793259,182.366348 242.140656,187.759705 249.862778,191.937347 
	C252.013092,193.100647 254.349670,193.919708 256.949219,195.058426 
	C258.651245,195.802872 260.104553,195.316895 261.781067,195.805084 
	C262.076965,195.999603 262.004486,196.017899 261.993744,195.982117 
	C265.668030,197.144424 269.448578,196.251083 273.547821,196.288788 
	C277.664673,195.072479 281.412567,194.025238 285.560120,192.976135 
	C285.956635,194.325256 286.243347,195.539948 287.090973,196.680389 
	C288.401031,198.443024 287.377686,199.369415 285.341492,199.959351 
	C282.431030,198.959106 280.098969,200.293274 277.754517,200.875793 
	C268.753021,203.112274 260.065613,202.198792 250.807327,198.621475 
	C259.825439,202.496155 268.442322,202.729156 277.206482,201.186371 
	C279.607513,200.763718 281.884399,199.274704 284.711304,200.754959 
z"/>
<path fill="#54450B" opacity="1.000000" stroke="none" 
	d="
M338.794220,77.762741 
	C342.923065,80.118256 342.218414,84.222198 343.320343,87.514839 
	C345.694916,94.610199 346.971344,102.140289 351.884735,108.575912 
	C352.486237,109.497620 352.666779,110.199448 352.647949,111.297150 
	C351.854156,113.067688 350.300964,113.264206 348.829163,114.197968 
	C347.898743,114.706886 347.224823,114.867867 346.170532,114.856377 
	C345.604370,114.754280 345.383606,114.685555 344.860474,114.448036 
	C343.830170,113.716270 343.168945,113.076065 342.219879,112.233612 
	C339.157623,108.386223 337.302551,104.317360 335.999634,99.591995 
	C335.427917,98.127533 336.065552,96.263695 334.283081,96.040207 
	C333.004211,95.879868 332.488739,97.289597 331.834869,98.215210 
	C328.879974,102.398048 325.734222,106.415260 321.985046,109.935478 
	C320.401459,111.422356 318.900513,112.978683 316.129669,112.397430 
	C315.469269,109.467400 315.469269,109.467400 309.745178,108.312386 
	C311.089111,110.136665 313.497559,110.344070 315.169556,112.189651 
	C310.396088,115.656258 304.804260,113.616928 303.295074,107.997536 
	C300.753754,98.534981 305.323181,91.369278 311.693756,85.366447 
	C315.365204,81.906929 319.672607,78.720284 325.581787,78.283340 
	C326.154816,77.831909 326.359467,77.554657 326.817444,77.206863 
	C330.822510,77.946068 334.631256,77.253120 338.794220,77.762741 
z"/>
<path fill="#52430C" opacity="1.000000" stroke="none" 
	d="
M226.749924,76.799454 
	C231.438705,80.285065 229.874557,84.579826 228.293365,88.156166 
	C221.533707,103.445129 217.330017,119.399025 214.835800,135.865097 
	C214.714264,136.667526 214.282410,137.422943 213.904312,138.599548 
	C206.758926,143.130646 202.910965,141.008041 202.294312,132.892120 
	C201.550186,123.098763 201.009384,113.306664 201.309708,103.484604 
	C201.384705,101.032036 201.031601,98.414864 203.611557,96.247513 
	C205.372421,94.498756 206.846939,94.889153 208.664612,95.876801 
	C210.009460,96.791946 211.435226,97.088676 211.953156,99.667694 
	C214.759430,91.178055 216.663315,83.471542 221.349442,76.650406 
	C223.270889,76.523987 224.842224,76.451355 226.749924,76.799454 
z"/>
<path fill="#53440E" opacity="1.000000" stroke="none" 
	d="
M239.817734,91.372513 
	C240.032303,91.139725 240.457397,91.030884 240.671890,90.984779 
	C243.383026,90.843208 245.310745,89.134560 247.956268,88.441864 
	C248.730286,88.271721 249.179306,88.307762 249.922577,88.584930 
	C251.632568,91.389503 252.434479,94.721519 256.872070,94.422195 
	C257.625305,94.800392 257.984314,95.123787 258.473389,95.829651 
	C258.941956,97.169922 258.851624,98.130310 258.032013,99.299454 
	C255.262390,100.727646 254.075562,103.315224 252.043503,104.971474 
	C248.586365,107.789299 245.420364,110.977539 241.266846,112.923798 
	C239.196426,113.893951 236.539200,114.984978 238.277679,118.394318 
	C242.190948,118.816086 243.913666,115.624878 246.585175,114.223434 
	C248.317322,113.314774 249.860977,112.067909 252.015503,111.150955 
	C254.391861,110.505325 256.441071,110.574852 258.882172,110.917496 
	C259.513763,111.120094 259.759186,111.225090 260.338440,111.553223 
	C264.141083,116.130402 264.107178,116.515602 259.539917,122.193481 
	C253.222458,127.160316 246.688217,130.606140 238.748032,130.435181 
	C233.278107,130.317383 228.417465,126.964386 226.497803,121.800880 
	C225.800888,119.926361 225.057663,118.071266 224.356125,116.199783 
	C223.688522,114.418846 223.378540,112.448517 224.524353,110.895493 
	C228.059479,106.104073 230.100296,100.211288 235.344971,96.232742 
	C236.296387,95.368988 237.075089,94.866348 237.909973,93.939949 
	C238.590515,92.978882 239.160095,92.337669 239.817734,91.372513 
z"/>
<path fill="#514C46" opacity="1.000000" stroke="none" 
	d="
M258.293701,96.046463 
	C257.676880,95.793724 257.404022,95.603157 257.010315,95.189598 
	C256.087524,93.997528 255.895432,92.903343 256.416382,91.313431 
	C257.022217,90.502708 257.499817,90.183945 258.459930,89.853333 
	C260.565918,89.448380 262.248138,89.459511 264.293518,90.082718 
	C265.195984,90.441261 265.736115,90.541824 266.650208,90.761780 
	C267.439209,90.956833 267.870148,90.947212 268.623962,90.921448 
	C269.393951,90.539986 269.849762,90.189613 270.713074,90.019737 
	C274.783386,90.283394 277.380981,86.595093 281.577820,86.943695 
	C283.010956,86.802711 283.408539,87.355431 283.220947,88.657356 
	C278.586731,93.927910 274.163055,98.853249 269.728729,103.768967 
	C268.531738,105.095909 266.943085,106.174530 266.979645,108.621246 
	C267.231506,111.482582 268.227814,113.841415 268.241089,116.680054 
	C268.743622,118.682739 270.301666,118.671555 271.715973,119.162544 
	C282.436829,122.884415 293.402313,125.595306 302.070831,134.135956 
	C312.286011,144.200470 317.380829,160.648544 308.951721,174.134079 
	C307.285675,176.799561 305.829926,179.596497 304.131287,182.646973 
	C303.340088,183.798660 302.372559,184.148468 301.248474,184.807709 
	C299.094513,187.273926 296.894897,189.039658 293.327698,188.995972 
	C296.385223,184.126358 302.374969,181.589111 304.768768,175.748840 
	C305.988678,172.772583 307.948212,170.082489 308.050720,166.293900 
	C308.968262,162.884827 308.342590,159.817841 308.274475,156.442688 
	C305.897705,144.489899 298.586212,137.036011 288.703400,131.268921 
	C280.375336,126.409096 270.520355,125.594788 262.290680,120.638390 
	C262.127594,120.540169 261.532867,121.158638 260.997253,121.723404 
	C260.456879,122.328461 260.004700,122.478195 259.200134,122.192505 
	C260.333038,118.991081 264.131744,116.331482 260.108612,112.292755 
	C262.647858,105.838280 266.478912,100.639168 271.379883,95.985855 
	C270.291687,95.969658 269.480408,96.121452 268.329376,95.961327 
	C266.257385,95.400803 264.514618,95.144043 262.414307,95.838257 
	C260.945557,96.185066 259.803375,96.377747 258.293701,96.046463 
z"/>
<path fill="#534D48" opacity="1.000000" stroke="none" 
	d="
M234.716614,139.048920 
	C234.260941,142.931442 230.580170,144.629852 228.547836,147.655151 
	C218.298203,162.912674 223.626541,183.389755 236.130844,193.672302 
	C250.527313,205.510834 266.663635,207.774536 284.614288,203.031616 
	C286.175201,202.818329 287.349213,202.668564 288.760010,202.252945 
	C290.266846,200.696609 291.933685,200.102890 293.816101,199.223694 
	C301.872589,196.733505 307.673950,191.782608 312.310333,185.313690 
	C314.314758,182.516998 315.496094,179.111115 318.833679,177.018158 
	C318.391174,181.728348 314.919403,184.993088 312.553741,188.849854 
	C311.853699,189.991226 311.082764,191.000549 310.848267,193.011688 
	C309.938812,194.687546 308.828979,195.468246 307.871246,196.856232 
	C307.479156,197.271591 307.308746,197.426361 306.850952,197.775879 
	C301.304840,201.825821 295.580780,204.862106 289.339478,207.701340 
	C287.612915,208.233612 286.204437,208.439880 284.417236,208.003265 
	C281.979248,208.253647 279.885376,208.605072 277.392273,208.978058 
	C274.314209,210.066010 271.505066,209.183502 268.415283,209.750778 
	C267.570862,209.964554 267.090515,209.976151 266.250122,209.947769 
	C263.183533,209.056931 260.412262,209.654678 257.358704,209.750519 
	C250.919617,207.065094 244.102631,206.203232 238.221039,202.257629 
	C228.874283,195.987427 222.097061,188.329086 219.984726,177.037903 
	C219.775604,175.920059 219.326614,174.847076 218.993073,173.357666 
	C217.996414,169.622223 218.690277,166.210648 218.784119,162.421234 
	C220.099945,157.770325 221.215515,153.516876 223.518356,149.744797 
	C226.230255,145.302643 228.875458,140.726578 234.716614,139.048920 
z"/>
<path fill="#504B46" opacity="1.000000" stroke="none" 
	d="
M81.359848,57.669456 
	C80.325577,87.795891 82.590462,117.677963 78.342712,147.483856 
	C77.384537,143.789200 74.492233,140.703400 75.774040,136.256104 
	C75.934036,135.461533 75.983772,135.019028 76.076996,134.245331 
	C76.995926,129.188446 76.275467,124.419189 76.509171,119.220657 
	C76.509476,115.059494 76.509285,111.353668 76.509186,107.175262 
	C76.509514,92.600052 76.509300,78.497406 76.509003,63.917908 
	C76.538170,60.916348 76.446159,58.390697 76.782043,55.445549 
	C77.744057,53.764980 78.491486,52.505558 79.533585,51.125015 
	C80.290062,50.636051 80.813896,50.489330 81.791718,50.722176 
	C83.384521,53.154198 82.678589,55.258305 81.359848,57.669456 
z"/>
<path fill="#504A44" opacity="1.000000" stroke="none" 
	d="
M53.746361,69.854370 
	C49.311295,75.751900 49.660110,83.001266 49.320717,89.444107 
	C48.460987,105.764610 46.095432,122.033897 46.962448,138.441422 
	C47.077995,140.628082 47.197636,142.615936 48.654549,144.479309 
	C51.101788,147.609299 53.003517,144.939285 55.451370,144.090729 
	C56.384853,148.309372 53.676128,150.209839 50.207020,150.727097 
	C47.155899,151.182007 43.817932,150.920624 42.984337,146.378693 
	C41.958584,138.327530 42.718136,130.628922 42.774773,122.512527 
	C43.007206,121.564072 43.030605,121.050392 43.118820,120.156555 
	C43.926868,115.129166 43.255985,110.443039 43.783951,105.401169 
	C43.998753,104.830292 43.998226,104.642227 44.044125,104.175903 
	C44.995560,100.207199 44.231937,96.445915 44.777302,92.353912 
	C44.982498,91.807678 44.974968,91.638695 45.006866,91.219055 
	C45.986546,89.209724 45.296768,87.313210 45.509220,85.088989 
	C45.526840,83.327621 45.463028,81.968956 45.791306,80.266075 
	C47.550068,76.533829 47.182404,72.163185 51.475212,69.997475 
	C52.302132,69.621117 52.831123,69.491173 53.746361,69.854370 
z"/>
<path fill="#791819" opacity="1.000000" stroke="none" 
	d="
M283.970215,208.221268 
	C285.192627,206.473480 286.784149,207.145630 288.563538,206.965240 
	C295.617249,205.303329 301.326782,201.840775 306.826904,197.282806 
	C307.066956,197.029755 307.015411,197.007324 307.021240,197.034821 
	C308.223267,195.870819 309.698090,194.954315 310.823303,193.245026 
	C311.061279,193.032257 311.039124,193.063919 311.067993,193.070480 
	C317.319275,190.306137 319.844513,184.358292 322.778900,178.946991 
	C324.687469,175.427444 325.637299,171.388031 327.088623,167.195511 
	C327.841095,165.452774 327.324768,163.978256 327.761597,162.271515 
	C327.962006,161.535660 327.977722,161.107635 327.986267,160.358368 
	C327.089081,158.362854 327.644714,156.574692 327.786591,154.450897 
	C331.349609,151.355331 330.940216,155.070190 331.944153,156.728241 
	C331.019287,158.787888 331.660461,160.605789 331.738586,162.644012 
	C330.618317,175.508026 324.736755,185.999634 316.907837,195.583282 
	C312.015411,201.572311 305.474731,205.470108 299.034485,209.477768 
	C297.170502,210.637711 295.114044,211.207275 292.493164,211.044144 
	C289.672699,212.026337 287.130280,211.204041 284.284790,211.708344 
	C282.285187,210.786469 283.207703,209.661911 283.970215,208.221268 
z"/>
<path fill="#534D44" opacity="1.000000" stroke="none" 
	d="
M315.733215,111.803444 
	C322.377777,110.274925 324.899323,104.313156 328.966827,100.055367 
	C329.856567,99.123993 330.406281,97.872696 331.144806,96.790710 
	C332.067535,95.438911 332.947968,93.805870 334.932495,94.251221 
	C337.004364,94.716164 336.957153,96.548073 336.986938,98.602173 
	C335.409393,99.337517 333.564850,98.984917 332.261597,100.894806 
	C327.627045,104.528709 325.867401,110.038162 321.476776,113.682831 
	C315.647827,118.521523 307.084320,119.680511 301.364136,114.898041 
	C298.727417,112.693558 299.318298,109.082085 299.128723,106.160507 
	C298.518036,96.747765 303.924316,89.920753 310.521423,84.354874 
	C314.537567,80.966515 319.119049,77.465843 325.543945,78.097580 
	C316.934601,81.677193 309.718994,87.258820 305.452271,96.224487 
	C302.422485,102.590889 303.920990,109.845871 308.767395,112.230598 
	C310.689026,113.176155 312.549438,113.227173 314.777649,112.288422 
	C315.197113,111.885506 315.346344,111.755585 315.733215,111.803444 
z"/>
<path fill="#504A3F" opacity="1.000000" stroke="none" 
	d="
M89.310333,142.255005 
	C89.128242,134.576141 89.250473,127.106163 89.598351,119.286873 
	C90.435539,119.034485 91.000755,118.943916 91.726883,118.350891 
	C94.103928,113.396500 95.861084,108.512962 99.534996,104.454704 
	C101.782623,101.971947 104.457703,101.043037 107.632294,99.953964 
	C108.409134,99.643829 108.866074,99.513084 109.664398,99.827446 
	C95.837761,109.040382 93.572998,122.986588 94.108398,138.042847 
	C94.169868,139.771530 94.506905,141.684525 96.515503,142.994171 
	C98.152351,143.807037 98.424782,145.134003 98.918564,146.671112 
	C102.698532,151.009872 106.031982,148.711899 109.680710,146.158981 
	C110.342506,145.647400 110.758888,145.513107 111.518265,145.774689 
	C110.803093,149.186310 108.651802,151.398209 105.447998,153.009521 
	C102.711464,153.995224 100.224548,153.311340 97.370941,153.224213 
	C92.042633,151.214096 90.177605,147.292160 89.310333,142.255005 
z"/>
<path fill="#4F4A42" opacity="1.000000" stroke="none" 
	d="
M127.729538,87.175812 
	C135.314392,86.920517 135.220703,86.905128 134.075256,93.878662 
	C132.306183,104.648705 130.702423,115.445808 128.979126,126.223541 
	C128.497162,129.237885 127.241653,134.379425 125.685455,134.061417 
	C122.722389,133.455887 124.084373,129.108658 123.807755,126.103035 
	C126.478256,122.523834 125.751930,118.361237 127.055550,114.309586 
	C127.946457,112.198555 127.269890,110.363480 127.776482,108.291275 
	C128.005417,106.831146 128.029327,105.696205 128.132996,104.142700 
	C128.829575,102.063004 128.320541,100.322144 128.785706,98.335083 
	C128.990158,97.846825 128.981979,97.658676 129.021271,97.192047 
	C129.890656,95.468452 129.471649,93.946869 129.106781,92.214912 
	C125.775391,92.993477 122.740883,94.304390 119.571228,94.924637 
	C116.172890,95.589638 112.933403,95.149979 111.491615,91.096855 
	C110.177406,87.402351 111.654854,84.704391 114.221420,82.264084 
	C115.100578,81.428177 116.086441,80.899956 117.677368,80.761520 
	C118.079475,89.053947 118.079475,89.053947 127.729538,87.175812 
z"/>
<path fill="#534D44" opacity="1.000000" stroke="none" 
	d="
M136.281525,136.197159 
	C136.748367,130.544357 136.807510,124.861145 140.241287,118.400116 
	C141.832809,131.767776 140.749420,144.309311 146.541977,155.844391 
	C149.694962,159.196136 153.019897,159.131317 156.844849,157.261505 
	C160.590912,156.146042 160.280319,152.247742 162.756927,150.149933 
	C161.942032,156.463852 160.114182,162.513443 153.324265,165.900177 
	C151.648239,166.871689 150.160446,166.372910 148.351410,166.216492 
	C143.219711,166.214600 142.576889,162.122208 141.006439,159.158356 
	C140.128937,157.502243 139.819809,155.544983 139.129364,153.369843 
	C138.052322,151.715622 138.737534,150.202698 138.296448,148.492554 
	C138.070038,147.416992 138.006516,146.663589 137.963867,145.531097 
	C136.991531,143.136490 137.779404,140.972824 137.317444,138.531937 
	C136.973160,137.551086 136.776138,136.939163 136.281525,136.197159 
z"/>
<path fill="#524C49" opacity="1.000000" stroke="none" 
	d="
M332.130676,101.386215 
	C332.289856,98.116234 332.747284,95.440422 336.709686,98.786850 
	C338.443481,103.333130 340.400909,107.445244 342.932190,111.676941 
	C343.626282,112.431564 344.171570,112.859726 344.798584,113.697144 
	C345.016235,113.966095 345.001099,113.998222 345.016846,113.990158 
	C349.647308,115.526428 353.019012,119.606705 358.456543,119.732521 
	C364.442108,119.871010 369.451172,118.171143 373.956268,114.412384 
	C375.553711,113.079575 376.912384,111.155571 379.747559,111.793877 
	C379.449097,118.567047 373.504791,120.558372 369.238190,122.988892 
	C360.710754,127.846619 351.745300,127.397987 343.653717,120.989998 
	C339.229950,117.486679 337.058075,112.501526 334.754395,107.606697 
	C333.847565,105.679893 333.099457,103.678391 332.130676,101.386215 
z"/>
<path fill="#544514" opacity="1.000000" stroke="none" 
	d="
M380.026093,112.008499 
	C377.927734,111.991081 376.908234,113.698853 375.591461,114.904999 
	C366.371765,123.350021 356.411224,123.256348 345.177002,114.287918 
	C345.772247,113.989418 346.511841,113.996727 347.621765,114.004890 
	C351.587036,113.603981 353.264099,117.482498 356.854065,117.889236 
	C357.963684,118.004166 358.744476,118.000412 359.525391,117.999496 
	C358.863770,117.968796 358.200562,117.955147 357.223816,117.694489 
	C355.068512,116.066948 352.600708,115.235764 351.883179,112.339966 
	C352.004272,111.216347 352.008575,110.439713 352.026917,109.273376 
	C357.440613,112.657494 361.369110,112.334930 366.713715,107.714699 
	C368.170074,106.455727 369.168915,104.642555 371.500183,104.028870 
	C373.215759,103.080406 374.750977,103.648094 376.612854,103.778625 
	C381.086426,104.396873 380.065155,107.929840 380.849457,110.712372 
	C380.670013,111.259575 380.537262,111.420662 380.199677,111.818527 
	C379.994812,112.055313 379.999786,112.002029 380.026093,112.008499 
z"/>
<path fill="#504C4C" opacity="1.000000" stroke="none" 
	d="
M70.731285,155.807037 
	C71.304695,157.744293 71.682480,159.452087 72.068558,161.540497 
	C72.248138,162.191315 72.440346,162.445724 72.842392,162.831268 
	C74.624832,165.745605 76.778847,167.510696 80.603577,166.987274 
	C81.837067,167.028458 82.702972,166.955948 83.633545,167.761719 
	C83.253090,169.538437 82.280205,170.646957 80.252274,170.985596 
	C78.629158,171.860123 77.202682,171.382050 75.467819,171.219498 
	C68.211479,170.664368 68.228561,164.285583 66.835526,160.225693 
	C62.913208,148.794418 61.280991,136.730331 58.977631,124.447388 
	C58.051460,122.631790 58.761539,121.032227 58.185734,119.267097 
	C57.942806,118.972252 58.024246,118.993858 58.016281,119.035225 
	C56.741184,117.818802 57.835415,116.251442 57.286697,114.553314 
	C57.084415,114.025948 57.053204,113.822304 57.006676,113.310020 
	C57.484512,110.839500 55.641865,107.301369 60.553001,107.797104 
	C60.930332,108.789948 60.963856,109.525688 61.005589,110.629608 
	C61.018463,111.590912 61.182667,112.130035 61.745056,112.816025 
	C61.960159,113.774040 61.985703,114.514580 62.017696,115.625580 
	C62.015408,116.443832 62.016895,116.891594 62.050789,117.674530 
	C62.078716,119.044312 62.085983,120.078865 62.104080,121.501228 
	C63.366913,124.289124 63.964302,126.894669 64.723679,129.774689 
	C64.946411,130.467255 64.954506,130.901901 64.962570,131.662567 
	C64.840843,132.159805 64.719139,132.330994 64.784134,132.755951 
	C64.984390,133.444366 64.997955,133.878998 65.020370,134.639633 
	C66.184715,135.878860 65.777557,137.432404 66.686172,138.788788 
	C66.939377,140.728043 66.995239,142.406158 67.059494,144.503830 
	C67.528809,145.514648 68.050491,146.052399 68.726562,146.827820 
	C68.960815,148.736252 69.019974,150.425217 69.100616,152.536072 
	C69.305420,153.986496 69.912399,154.786438 70.731285,155.807037 
z"/>
<path fill="#7C1717" opacity="1.000000" stroke="none" 
	d="
M352.204987,62.291187 
	C356.277649,56.932735 361.667816,53.829056 366.995178,50.651337 
	C368.348694,49.843994 369.825653,49.509781 371.090179,50.718201 
	C372.208435,51.786823 371.861542,53.014404 371.293396,54.363407 
	C367.154785,64.190063 359.719482,70.684402 350.390015,75.307991 
	C349.135406,75.929779 347.837982,76.350060 346.803009,75.026871 
	C345.767761,73.703293 345.888641,72.264633 346.770508,70.872726 
	C348.517090,68.116035 350.264679,65.359978 352.204987,62.291187 
z"/>
<path fill="#534D48" opacity="1.000000" stroke="none" 
	d="
M258.563141,122.005554 
	C259.342957,121.971535 259.775818,121.984833 260.531830,122.001099 
	C255.928772,128.867218 249.142960,132.361450 240.398468,133.034973 
	C238.648621,133.864853 237.179596,133.377365 235.389603,133.220703 
	C226.050400,131.624634 219.469421,122.496170 220.983017,113.754150 
	C221.519516,110.655518 224.117676,108.865707 225.551697,106.378021 
	C228.947906,100.486496 232.973007,94.667908 239.706238,91.226303 
	C239.775162,91.906975 239.518005,92.674225 239.131531,93.722015 
	C238.457336,94.525352 237.930222,95.065987 237.186523,95.789940 
	C232.371872,100.107521 229.947372,105.874832 226.034897,110.520821 
	C224.960480,111.796677 224.816971,113.257156 225.165222,114.745758 
	C228.451874,128.794998 239.815567,133.289291 252.189178,125.492516 
	C254.144348,124.260529 256.204559,123.195244 258.563141,122.005554 
z"/>
<path fill="#791616" opacity="1.000000" stroke="none" 
	d="
M304.581543,45.746094 
	C315.933655,48.690296 320.835297,57.298336 324.689636,66.714317 
	C325.803741,69.436020 324.060516,71.946022 321.191986,70.701256 
	C312.398407,66.885384 303.808075,62.533611 300.008911,52.335278 
	C299.088837,50.280834 299.647247,48.471291 299.787903,46.324154 
	C300.010376,45.935799 300.008331,46.008144 299.972168,46.008568 
	C301.274109,45.116707 302.761047,45.634315 304.581543,45.746094 
z"/>
<path fill="#4F4840" opacity="1.000000" stroke="none" 
	d="
M203.639465,95.995377 
	C201.948608,105.450066 203.061234,115.008492 203.472946,124.526031 
	C203.563538,126.620117 203.983093,128.762390 203.998062,130.902740 
	C204.063095,140.199280 204.272751,140.393951 213.423981,138.999405 
	C212.046997,143.191193 209.702820,146.550507 204.133179,145.791748 
	C199.455536,142.237717 200.102539,136.694122 199.005051,131.329803 
	C199.057343,129.725845 198.865112,128.579025 198.438354,127.095238 
	C197.797684,124.702820 197.900787,122.682327 198.486145,120.268181 
	C198.488861,119.031059 198.150848,118.255531 198.040222,117.007004 
	C198.059387,113.652794 197.836334,110.722008 198.306885,107.373497 
	C198.632050,104.252937 198.398911,101.553291 198.783813,98.463913 
	C200.032578,96.565117 201.581253,96.136490 203.639465,95.995377 
z"/>
<path fill="#504A42" opacity="1.000000" stroke="none" 
	d="
M164.560760,97.097977 
	C161.454147,106.025383 161.141006,115.543472 159.346176,124.763680 
	C158.180115,130.753937 157.645340,136.891922 155.563828,142.672684 
	C155.017303,144.190445 155.218124,147.045563 152.609039,146.472458 
	C150.358307,145.978058 151.134964,143.480728 150.993378,141.322144 
	C153.847275,138.489578 153.313049,134.876617 153.605194,131.833969 
	C153.770340,130.113937 154.149399,128.788498 155.079865,127.076462 
	C155.801132,125.044403 155.325012,123.270821 155.778854,121.224701 
	C155.988144,120.147926 156.002060,119.391602 156.053146,118.258842 
	C156.922165,116.486710 156.267029,114.916992 156.810669,113.146011 
	C157.013947,112.828255 156.900620,112.380104 156.974899,112.161240 
	C157.881668,110.939072 157.323273,109.714439 157.786926,108.342941 
	C158.023087,104.575470 158.600037,101.311699 160.769608,98.355072 
	C161.779160,96.979286 162.836868,96.947792 164.560760,97.097977 
z"/>
<path fill="#524D46" opacity="1.000000" stroke="none" 
	d="
M250.683701,171.045227 
	C257.598602,170.499146 259.630646,165.137039 262.561707,160.251968 
	C263.811279,169.193634 257.070190,173.494949 250.706161,176.317337 
	C245.816666,178.485809 239.234802,178.636826 234.386627,173.237732 
	C231.866714,168.424164 231.003494,163.783646 234.887360,159.042114 
	C235.938599,158.112762 236.903290,157.883148 238.303116,158.301483 
	C239.831467,159.390640 239.181534,160.537979 238.994034,161.635208 
	C237.924515,167.894135 239.167221,169.608063 245.429779,170.757065 
	C247.071808,171.058334 248.694046,171.126740 250.683701,171.045227 
z"/>
<path fill="#7B0F0E" opacity="1.000000" stroke="none" 
	d="
M345.230774,44.567177 
	C343.598602,52.585251 341.515472,59.895779 334.623657,64.946869 
	C332.723175,62.323418 333.841400,59.495998 333.779236,56.372604 
	C334.004395,55.786835 334.015442,55.617416 334.087036,55.200626 
	C334.809204,53.846870 334.329865,52.588974 334.788239,51.116379 
	C336.308075,46.708466 337.392609,42.467937 340.365143,39.165958 
	C341.811646,37.559162 343.568054,35.652489 344.992737,39.659172 
	C345.867371,41.324219 345.376129,42.784401 345.230774,44.567177 
z"/>
<path fill="#534D44" opacity="1.000000" stroke="none" 
	d="
M112.006531,145.741272 
	C111.397606,145.987976 110.999199,145.991730 110.301460,145.997131 
	C110.460121,143.093811 113.683136,141.364182 113.352394,138.029678 
	C113.305603,137.557953 114.747101,136.579193 115.589005,136.458649 
	C117.038864,136.251083 117.508698,137.695572 117.689461,138.742111 
	C118.120804,141.239227 118.995529,143.460999 120.639763,145.399567 
	C122.966301,148.142593 125.529678,149.165527 128.845718,146.348907 
	C133.543228,144.898865 132.248505,139.564987 135.574280,137.193481 
	C135.503265,143.134674 132.821609,148.302673 128.182022,151.957001 
	C125.287804,154.236603 121.362076,153.677124 117.513321,151.929520 
	C116.036926,151.441574 115.484756,150.532959 114.841721,149.313904 
	C113.367577,148.223572 115.096397,145.206207 112.006531,145.741272 
z"/>
<path fill="#524D46" opacity="1.000000" stroke="none" 
	d="
M185.343079,140.513550 
	C185.796417,137.136032 185.809448,132.595428 188.769501,131.919464 
	C190.552292,131.512344 190.180511,136.881836 191.615814,139.360306 
	C193.186081,142.071869 192.650757,145.392166 194.396301,148.193115 
	C196.611389,151.747498 199.178299,153.432678 203.685242,151.999298 
	C204.528397,156.398575 201.113815,156.731018 198.267517,157.186417 
	C195.259064,157.667770 192.244415,157.326935 190.855637,153.872726 
	C189.512466,150.532028 188.234650,147.165085 186.967285,143.435349 
	C186.419479,142.361267 186.210068,141.429031 185.343079,140.513550 
z"/>
<path fill="#514C46" opacity="1.000000" stroke="none" 
	d="
M137.355499,63.751900 
	C137.087433,66.055183 137.043015,68.090088 136.997681,70.561478 
	C136.904816,72.481339 137.255615,74.016098 136.247513,75.713257 
	C136.011597,76.006020 135.999695,75.999695 136.003082,76.005569 
	C134.943863,76.966492 133.903183,77.981194 131.962051,77.092529 
	C131.416626,75.397026 131.503235,73.987320 131.796631,72.216644 
	C132.017471,71.855423 131.856689,71.456230 131.916016,71.249397 
	C132.934280,70.004066 132.296143,68.686127 132.796692,67.226639 
	C132.994934,66.737640 132.986237,66.553223 133.054962,66.102936 
	C133.937943,63.804848 133.262375,61.667484 133.789124,59.268143 
	C134.758240,53.799786 135.411530,48.645454 136.320511,43.536613 
	C136.667328,41.587311 137.556442,39.692482 140.602524,40.107956 
	C141.350418,40.448994 141.622559,40.811989 141.905212,41.565788 
	C142.018677,42.362011 141.999878,42.819981 141.829315,43.604973 
	C141.472198,44.582104 140.990707,45.058964 140.259415,45.764748 
	C138.750122,50.922882 138.955994,55.948444 138.909546,61.410130 
	C138.514572,62.445007 138.033005,62.952888 137.355499,63.751900 
z"/>
<path fill="#504A44" opacity="1.000000" stroke="none" 
	d="
M149.873062,86.084267 
	C148.713669,83.452446 149.953415,81.748466 152.566071,81.014374 
	C159.717712,79.004913 166.804108,76.644836 174.072754,75.223343 
	C177.379395,74.576675 179.972931,73.544479 182.499756,71.115921 
	C183.098465,76.254166 179.743591,78.171432 175.440094,79.306007 
	C167.147018,81.492386 158.867218,83.729164 149.873062,86.084267 
z"/>
<path fill="#535050" opacity="1.000000" stroke="none" 
	d="
M186.659241,96.929993 
	C185.169373,105.289169 183.556503,113.799492 181.339172,122.149300 
	C180.575470,125.025169 180.962540,128.541168 177.877060,131.014191 
	C176.337036,131.596130 175.576645,131.180618 175.786041,129.434647 
	C178.773544,120.442719 180.774551,111.610985 182.096802,102.611137 
	C182.464249,100.110077 183.652969,97.945122 186.659241,96.929993 
z"/>
<path fill="#5A3E12" opacity="1.000000" stroke="none" 
	d="
M81.467567,58.016884 
	C80.877762,55.921646 80.968414,53.877209 81.976349,51.571205 
	C83.285995,49.937889 84.835190,50.712044 86.637161,50.770836 
	C87.833885,51.574451 88.638229,52.169682 89.699661,52.928070 
	C91.164368,58.651131 90.361534,64.278168 90.446022,69.869919 
	C90.568626,77.984825 90.595291,86.105019 90.108917,94.610313 
	C88.014153,89.850685 89.370628,84.542007 89.037628,79.317390 
	C88.838165,76.187843 88.596260,72.970360 89.086563,69.906517 
	C90.081993,63.686203 87.109413,60.234386 81.467567,58.016884 
z"/>
<path fill="#534216" opacity="1.000000" stroke="none" 
	d="
M131.650726,77.005325 
	C133.031403,76.654579 134.166168,76.369995 135.653687,76.048431 
	C135.867554,78.400101 134.179703,78.756668 132.250000,79.162277 
	C128.408859,79.969666 124.620796,81.029549 120.501419,82.062714 
	C123.084908,83.799294 125.260780,85.261887 127.742828,86.886215 
	C126.720573,89.324554 124.285881,89.479698 122.123268,89.891922 
	C120.225655,90.253654 118.279305,90.208878 117.016266,88.067734 
	C115.538765,85.563019 115.941513,83.448044 117.906662,81.037964 
	C122.088829,79.506287 126.132309,78.342148 130.541473,77.070450 
	C131.073044,76.999092 131.238922,77.035286 131.650726,77.005325 
z"/>
<path fill="#791819" opacity="1.000000" stroke="none" 
	d="
M114.461777,149.161774 
	C116.104668,149.087051 116.916153,149.747269 117.064590,151.501694 
	C114.518608,156.226395 110.806541,159.053055 105.379089,159.997467 
	C102.657547,161.035446 100.199562,160.292603 97.402649,160.197220 
	C95.527000,159.943497 94.233803,159.419296 94.448540,157.755692 
	C94.658669,156.127808 96.215805,155.758209 97.516342,156.083160 
	C104.763359,157.894089 109.458557,153.603241 114.461777,149.161774 
z"/>
<path fill="#534D48" opacity="1.000000" stroke="none" 
	d="
M165.796997,137.692032 
	C167.682785,137.915726 168.964294,138.304764 169.010117,140.612701 
	C173.054077,144.783691 177.235626,144.686172 181.803818,141.279633 
	C182.814255,141.344452 183.565887,141.744781 184.556229,141.000549 
	C184.959366,141.082352 185.134460,141.251205 185.152023,141.749146 
	C183.065338,144.919067 181.207916,147.834030 177.362091,149.045868 
	C174.997177,149.966400 172.902527,149.326096 170.467773,149.221359 
	C167.928696,149.317932 167.089859,147.430466 165.416412,146.341232 
	C164.895874,146.222900 164.687256,146.183350 164.171692,146.058990 
	C163.613159,145.556076 163.522446,145.102936 163.741806,144.307861 
	C165.582321,142.549713 164.751419,140.574265 165.014038,138.425827 
	C165.181198,137.839355 165.342453,137.656158 165.796997,137.692032 
z"/>
<path fill="#791819" opacity="1.000000" stroke="none" 
	d="
M177.405640,153.288910 
	C179.632126,152.008041 182.030304,151.813446 183.646072,149.943146 
	C184.805679,148.600891 186.368912,148.674454 187.480469,150.031738 
	C188.569885,151.362000 187.403473,152.871597 186.609009,153.449722 
	C184.558395,154.941940 182.702286,157.002716 179.483215,157.033615 
	C176.374649,157.984482 173.550415,157.302780 170.347137,157.231674 
	C166.868073,157.196991 165.275772,155.635086 166.363937,152.823700 
	C167.469208,149.968094 169.289795,152.465103 171.126373,153.028244 
	C173.320358,153.887863 175.243500,153.376144 177.405640,153.288910 
z"/>
<path fill="#514A41" opacity="1.000000" stroke="none" 
	d="
M220.902222,76.886719 
	C218.208405,85.581985 215.264908,93.928741 212.019211,103.132378 
	C210.585403,100.491562 211.245468,97.955772 209.136200,96.340126 
	C212.087967,94.411560 212.023499,91.039642 213.205795,88.372482 
	C214.923599,84.497284 215.924973,80.238914 219.610764,77.131592 
	C220.165070,76.836876 220.408783,76.687538 220.902222,76.886719 
z"/>
<path fill="#66270D" opacity="1.000000" stroke="none" 
	d="
M262.220703,151.567352 
	C260.742523,151.939331 259.711334,151.440811 259.165344,150.288254 
	C257.134491,146.001144 253.705429,143.376495 249.382416,141.654495 
	C246.318161,140.433853 247.486008,139.330002 249.866455,138.176270 
	C255.748154,138.200073 259.146118,141.648682 261.868042,146.559311 
	C262.841003,148.229141 262.386963,149.727295 262.220703,151.567352 
z"/>
<path fill="#F1ECD4" opacity="1.000000" stroke="none" 
	d="
M89.883728,95.461960 
	C89.849907,81.336052 89.892227,67.673592 89.945648,53.551174 
	C92.169777,54.069382 90.916176,55.986515 90.927765,57.380146 
	C91.094864,77.489899 91.136536,97.600693 91.588348,117.942986 
	C91.643311,119.050102 92.241722,120.331207 91.072258,120.795250 
	C90.159088,121.157608 90.084610,120.281860 89.898163,119.290031 
	C89.869293,111.266838 89.914581,103.596123 89.883728,95.461960 
z"/>
<path fill="#FFFFFF" opacity="1.000000" stroke="none" 
	d="
M76.427155,63.473007 
	C76.892204,77.358978 76.941879,91.707085 76.922577,106.518143 
	C76.738434,107.160912 76.623260,107.340736 76.333275,107.252151 
	C76.109566,92.634216 76.060677,78.284683 76.427155,63.473007 
z"/>
<path fill="#5B3812" opacity="1.000000" stroke="none" 
	d="
M304.143219,76.678558 
	C302.473480,78.406982 301.239502,80.470375 299.736755,76.902847 
	C298.908875,74.937462 297.644562,73.193375 297.998993,70.522095 
	C300.795898,69.601578 302.952332,70.298523 303.977295,73.600159 
	C304.648041,74.679764 304.464539,75.530235 304.143219,76.678558 
z"/>
<path fill="#534D48" opacity="1.000000" stroke="none" 
	d="
M250.298813,89.208824 
	C249.548462,88.967468 249.109512,88.955322 248.341248,88.941078 
	C247.630020,88.905762 247.311462,88.742645 246.951843,88.207451 
	C248.979126,84.961082 249.108536,80.124092 254.652481,80.023178 
	C255.032547,80.081894 255.040634,80.559563 255.032654,80.798294 
	C252.783325,83.132408 253.326004,86.106415 252.359344,88.973434 
	C251.628433,89.494698 251.129410,89.552597 250.298813,89.208824 
z"/>
<path fill="#671F03" opacity="1.000000" stroke="none" 
	d="
M141.051819,44.289524 
	C141.039398,43.568100 141.048538,43.136066 141.070068,42.380146 
	C142.764420,39.934628 144.878357,39.596756 147.683441,40.762363 
	C148.365250,41.413441 148.668442,41.851505 149.012024,42.564095 
	C146.493851,42.925873 145.507843,46.180767 142.430328,45.951050 
	C141.588974,45.604118 141.235184,45.161095 141.051819,44.289524 
z"/>
<path fill="#72694B" opacity="1.000000" stroke="none" 
	d="
M149.914749,69.459724 
	C148.029297,64.469955 149.389923,58.850723 149.025146,53.319965 
	C148.819061,50.195095 148.980164,47.046009 148.992645,43.436195 
	C151.035004,45.979782 149.817184,49.351765 149.943436,52.542194 
	C150.160187,58.019283 149.976974,63.512203 149.914749,69.459724 
z"/>
<path fill="#524835" opacity="1.000000" stroke="none" 
	d="
M84.023010,167.696503 
	C83.023087,167.830795 82.207672,167.657089 81.194817,167.232788 
	C81.630669,166.189880 82.263954,165.397568 82.926712,164.293900 
	C82.899399,163.354599 83.125938,162.823944 83.771713,162.196747 
	C86.373428,161.916946 85.685234,159.705643 86.704247,158.266449 
	C87.938377,161.709412 86.521599,164.680374 84.023010,167.696503 
z"/>
<path fill="#F1ECD4" opacity="1.000000" stroke="none" 
	d="
M42.576031,122.233963 
	C42.985340,129.737259 42.986881,137.396774 42.991699,145.524475 
	C40.967419,143.066483 42.210995,139.773331 42.072571,136.668961 
	C41.860825,131.920242 42.113010,127.150818 42.576031,122.233963 
z"/>
<path fill="#F5F5E9" opacity="1.000000" stroke="none" 
	d="
M198.562805,106.783493 
	C198.687943,110.106552 198.706085,113.066727 198.692017,116.470459 
	C198.624023,117.136124 198.588257,117.358231 198.361008,117.859222 
	C197.958557,118.219452 197.747559,118.300797 197.285782,118.153763 
	C197.005142,114.598267 196.975296,111.271141 196.965515,107.490761 
	C196.985550,107.037506 197.445175,106.986099 197.675232,106.962898 
	C198.088791,106.766670 198.272293,106.593651 198.562805,106.783493 
z"/>
<path fill="#FFFFFF" opacity="1.000000" stroke="none" 
	d="
M56.414978,142.779037 
	C56.037201,136.426529 56.076649,129.935333 56.504662,123.256332 
	C56.872883,129.592468 56.852547,136.116409 56.414978,142.779037 
z"/>
<path fill="#514526" opacity="1.000000" stroke="none" 
	d="
M265.573059,77.096092 
	C263.849579,81.154915 260.055817,79.735504 256.346161,79.996292 
	C258.765869,78.273560 261.852081,77.272514 265.573059,77.096092 
z"/>
<path fill="#72694B" opacity="1.000000" stroke="none" 
	d="
M149.961639,133.509979 
	C147.813309,128.694748 149.548477,123.184235 148.974640,117.335411 
	C151.173218,122.138924 149.507111,127.659103 149.961639,133.509979 
z"/>
<path fill="#514526" opacity="1.000000" stroke="none" 
	d="
M246.505249,87.960266 
	C247.148300,88.131432 247.439957,88.316475 247.871765,88.720253 
	C246.183655,90.835480 243.922348,91.570847 241.110229,91.184052 
	C242.641525,89.949295 243.788864,87.879951 246.505249,87.960266 
z"/>
<path fill="#605F5F" opacity="1.000000" stroke="none" 
	d="
M76.710403,118.659668 
	C76.833374,123.663681 76.746796,128.486664 76.390350,133.611893 
	C76.092514,129.216309 76.064545,124.518501 76.075958,119.348480 
	C76.243843,118.743729 76.372353,118.611191 76.710403,118.659668 
z"/>
<path fill="#B8B7B2" opacity="1.000000" stroke="none" 
	d="
M43.603935,105.199890 
	C43.905693,109.740265 43.812107,114.462173 43.451073,119.480232 
	C43.191948,114.978065 43.200272,110.179733 43.603935,105.199890 
z"/>
<path fill="#534216" opacity="1.000000" stroke="none" 
	d="
M147.884033,40.655441 
	C145.927444,40.887367 143.816101,40.952339 141.462433,41.989048 
	C141.055710,41.632561 141.028961,41.208858 140.997971,40.468082 
	C143.265701,38.955307 145.530258,38.029629 147.884033,40.655441 
z"/>
<path fill="#98927B" opacity="1.000000" stroke="none" 
	d="
M44.632568,92.208252 
	C44.898354,95.776062 44.806679,99.575478 44.402775,103.636269 
	C44.152069,100.078384 44.213589,96.259109 44.632568,92.208252 
z"/>
<path fill="#72694B" opacity="1.000000" stroke="none" 
	d="
M273.463440,196.084671 
	C270.178375,197.683426 266.355225,197.055939 262.260071,196.253143 
	C265.658722,195.980759 269.334442,196.015198 273.463440,196.084671 
z"/>
<path fill="#524835" opacity="1.000000" stroke="none" 
	d="
M338.901947,77.632156 
	C335.351105,77.858475 331.515503,77.758034 327.375366,77.396957 
	C330.922241,77.013809 334.777100,76.657211 338.901947,77.632156 
z"/>
<path fill="#514C46" opacity="1.000000" stroke="none" 
	d="
M292.624573,188.950150 
	C292.201813,191.572220 289.830536,192.127655 287.322510,192.996857 
	C286.837158,192.836197 286.720276,192.664276 286.777252,192.233490 
	C288.380920,190.365158 290.330536,189.674210 292.624573,188.950150 
z"/>
<path fill="#F5F5E9" opacity="1.000000" stroke="none" 
	d="
M76.942879,118.390594 
	C76.919960,118.840691 76.520599,118.925102 76.317970,118.900688 
	C76.077286,115.214951 76.039230,111.553619 76.079819,107.438026 
	C76.158455,106.983757 76.506042,106.987312 76.679825,106.984207 
	C76.890999,110.634232 76.928398,114.287369 76.942879,118.390594 
z"/>
<path fill="#D0D0CD" opacity="1.000000" stroke="none" 
	d="
M218.616058,162.192230 
	C218.996231,165.356445 218.992554,168.704010 218.993027,172.506821 
	C217.006866,169.558624 218.241135,165.922195 218.616058,162.192230 
z"/>
<path fill="#888166" opacity="1.000000" stroke="none" 
	d="
M175.726410,128.994354 
	C175.989273,129.965042 176.167343,130.726242 177.344666,131.210098 
	C175.755798,133.074478 175.151093,132.637939 173.991669,128.324905 
	C174.483078,128.267563 174.967651,128.576691 175.726410,128.994354 
z"/>
<path fill="#B8B7B2" opacity="1.000000" stroke="none" 
	d="
M308.042358,156.547058 
	C309.927551,159.107834 308.837341,162.324326 308.433594,165.678574 
	C308.057312,162.924103 308.024323,159.956665 308.042358,156.547058 
z"/>
<path fill="#B8B7B2" opacity="1.000000" stroke="none" 
	d="
M268.489868,209.983139 
	C270.530060,207.903000 273.442505,209.427246 276.554077,208.987183 
	C274.545959,211.255646 271.592987,209.487015 268.489868,209.983139 
z"/>
<path fill="#BB7C7E" opacity="1.000000" stroke="none" 
	d="
M170.150482,157.371185 
	C172.679153,157.023865 175.433411,157.022034 178.649109,157.008362 
	C176.337296,158.913147 173.319611,157.865295 170.150482,157.371185 
z"/>
<path fill="#72694B" opacity="1.000000" stroke="none" 
	d="
M173.891418,126.424286 
	C172.289566,124.214844 173.062332,121.424614 173.568207,118.377594 
	C173.857758,120.722427 173.900070,123.356644 173.891418,126.424286 
z"/>
<path fill="#BB7C7E" opacity="1.000000" stroke="none" 
	d="
M333.626312,56.154099 
	C334.052032,58.648712 334.110718,61.341175 334.218323,64.477318 
	C331.693726,62.327839 333.399658,59.231300 333.626312,56.154099 
z"/>
<path fill="#888166" opacity="1.000000" stroke="none" 
	d="
M122.895760,122.398834 
	C121.113548,120.302017 122.375282,117.469719 122.000671,114.369431 
	C124.017693,116.410721 122.577293,119.300606 122.895760,122.398834 
z"/>
<path fill="#B8B7B2" opacity="1.000000" stroke="none" 
	d="
M257.487549,209.986099 
	C259.700195,207.920868 262.651703,209.244873 265.687195,209.562622 
	C263.236877,209.942551 260.583679,209.977325 257.487549,209.986099 
z"/>
<path fill="#B8B7B2" opacity="1.000000" stroke="none" 
	d="
M198.800110,106.704803 
	C198.669785,107.146370 198.251678,107.175781 198.078491,107.057739 
	C198.014481,104.094475 198.123672,101.249252 198.614990,98.235542 
	C198.974899,100.799110 198.952667,103.531174 198.800110,106.704803 
z"/>
<path fill="#72694B" opacity="1.000000" stroke="none" 
	d="
M121.889877,112.446938 
	C120.190376,110.341904 121.430336,107.502060 121.011642,104.396469 
	C122.842415,106.470566 121.580307,109.334686 121.889877,112.446938 
z"/>
<path fill="#98927B" opacity="1.000000" stroke="none" 
	d="
M97.157227,153.368439 
	C99.370384,153.013000 101.783150,153.012955 104.649078,153.013000 
	C102.674118,154.924805 99.964890,153.773117 97.157227,153.368439 
z"/>
<path fill="#964F52" opacity="1.000000" stroke="none" 
	d="
M284.344543,211.948334 
	C286.161987,210.068268 288.791962,211.378113 291.657837,211.023499 
	C289.868500,212.941895 287.225433,211.722015 284.344543,211.948334 
z"/>
<path fill="#BB7C7E" opacity="1.000000" stroke="none" 
	d="
M97.208153,160.314819 
	C99.376259,159.990753 101.744987,160.016373 104.556824,160.005539 
	C102.628082,161.931641 99.968704,160.755249 97.208153,160.314819 
z"/>
<path fill="#FFFFFF" opacity="1.000000" stroke="none" 
	d="
M149.421356,112.811096 
	C149.017441,110.607178 149.002136,108.270424 149.004898,105.496170 
	C151.083908,107.412773 149.638031,110.129066 149.421356,112.811096 
z"/>
<path fill="#F5F5E9" opacity="1.000000" stroke="none" 
	d="
M76.914795,62.572346 
	C76.842529,63.010864 76.504341,63.010242 76.335251,63.010345 
	C76.174248,60.437092 76.182343,57.863735 76.593536,55.157394 
	C76.993446,57.394215 76.990257,59.764019 76.914795,62.572346 
z"/>
<path fill="#FFFFFF" opacity="1.000000" stroke="none" 
	d="
M170.183792,149.397934 
	C172.088379,149.012772 174.101303,149.014786 176.546936,149.010284 
	C174.944229,150.922485 172.545288,149.729935 170.183792,149.397934 
z"/>
<path fill="#72694B" opacity="1.000000" stroke="none" 
	d="
M321.908020,155.479553 
	C320.254608,154.052780 321.342285,151.844391 321.005371,149.423462 
	C322.784149,150.800674 321.697357,153.043823 321.908020,155.479553 
z"/>
<path fill="#72694B" opacity="1.000000" stroke="none" 
	d="
M87.336029,156.918701 
	C87.099716,154.969208 87.220123,152.810410 87.605827,150.371918 
	C87.811661,152.297943 87.752205,154.503677 87.336029,156.918701 
z"/>
<path fill="#B8B7B2" opacity="1.000000" stroke="none" 
	d="
M177.287720,153.076691 
	C175.877426,154.647003 173.867920,153.949066 171.680145,153.413010 
	C173.274857,153.118362 175.087128,153.076630 177.287720,153.076691 
z"/>
<path fill="#D0D0CD" opacity="1.000000" stroke="none" 
	d="
M86.873550,50.602673 
	C85.641968,51.014954 84.254395,51.050686 82.455490,51.141865 
	C81.540718,51.233620 81.037277,51.269928 80.181046,51.155067 
	C81.940216,49.110565 84.386459,50.178295 86.873550,50.602673 
z"/>
<path fill="#98927B" opacity="1.000000" stroke="none" 
	d="
M137.108368,138.571716 
	C138.769028,140.034546 137.620773,142.277344 137.993027,144.732773 
	C136.036194,143.343475 137.392471,141.032578 137.108368,138.571716 
z"/>
<path fill="#B8B7B2" opacity="1.000000" stroke="none" 
	d="
M133.630066,59.104691 
	C133.898743,61.062107 133.794418,63.188229 133.411255,65.575699 
	C133.173950,63.649170 133.215515,61.461285 133.630066,59.104691 
z"/>
<path fill="#B8B7B2" opacity="1.000000" stroke="none" 
	d="
M248.782196,136.590088 
	C246.925964,136.980026 244.924286,137.005157 242.497253,136.980972 
	C244.092209,135.135315 246.421188,136.207199 248.782196,136.590088 
z"/>
<path fill="#B8B7B2" opacity="1.000000" stroke="none" 
	d="
M193.775864,95.566864 
	C191.926956,95.969360 189.938431,96.005157 187.528000,95.998520 
	C189.098618,94.112869 191.431274,95.208069 193.775864,95.566864 
z"/>
<path fill="#98927B" opacity="1.000000" stroke="none" 
	d="
M179.755157,65.610603 
	C177.877869,66.002159 175.862640,66.021614 173.412659,66.026962 
	C175.001083,64.126305 177.353073,65.059013 179.755157,65.610603 
z"/>
<path fill="#888166" opacity="1.000000" stroke="none" 
	d="
M54.489037,70.091232 
	C53.577629,70.082100 53.078728,70.045006 52.204521,69.993622 
	C53.951435,68.144470 56.347702,69.080475 58.868359,69.655624 
	C57.676098,70.026962 56.288822,70.045113 54.489037,70.091232 
z"/>
<path fill="#888166" opacity="1.000000" stroke="none" 
	d="
M221.568558,77.178009 
	C220.948700,77.184547 220.745483,77.133858 220.231812,77.034691 
	C222.006454,75.103943 224.371826,76.113571 226.874908,76.672806 
	C225.387863,77.048630 223.686523,77.084702 221.568558,77.178009 
z"/>
<path fill="#98927B" opacity="1.000000" stroke="none" 
	d="
M322.364990,162.849731 
	C322.015259,161.299454 322.017181,159.588501 322.018677,157.449966 
	C323.840302,158.715378 322.805298,160.760544 322.364990,162.849731 
z"/>
<path fill="#524835" opacity="1.000000" stroke="none" 
	d="
M331.971436,162.506683 
	C330.491119,161.257019 331.000000,159.413620 331.692932,157.332458 
	C331.966949,158.756271 331.989075,160.424057 331.971436,162.506683 
z"/>
<path fill="#72694B" opacity="1.000000" stroke="none" 
	d="
M321.327026,169.767273 
	C321.102478,168.181854 321.222290,166.417084 321.592163,164.383514 
	C321.785278,165.939117 321.728333,167.763519 321.327026,169.767273 
z"/>
<path fill="#964F52" opacity="1.000000" stroke="none" 
	d="
M327.665955,154.237732 
	C327.994781,155.770920 327.985657,157.476303 327.977783,159.609406 
	C326.203461,158.341705 327.085815,156.338776 327.665955,154.237732 
z"/>
<path fill="#D0D0CD" opacity="1.000000" stroke="none" 
	d="
M128.627258,98.161804 
	C128.910751,99.761055 128.823151,101.487144 128.474152,103.468689 
	C127.868744,101.909454 127.753204,100.096581 128.627258,98.161804 
z"/>
<path fill="#F5F5E9" opacity="1.000000" stroke="none" 
	d="
M149.097366,86.630455 
	C149.164200,86.223488 149.493576,86.214890 149.643387,86.146210 
	C149.789795,87.966614 149.786377,89.855690 149.392166,91.859650 
	C149.011093,90.328827 149.020813,88.683128 149.097366,86.630455 
z"/>
<path fill="#B8B7B2" opacity="1.000000" stroke="none" 
	d="
M110.341095,100.012634 
	C109.518730,100.014297 109.089363,99.957657 108.334915,99.938560 
	C109.652756,98.203140 111.693077,99.289101 113.733231,99.541466 
	C112.842010,99.904633 111.788048,99.929474 110.341095,100.012634 
z"/>
<path fill="#605F5F" opacity="1.000000" stroke="none" 
	d="
M45.708351,84.647705 
	C45.916821,86.693558 46.359863,88.591995 45.330994,90.698715 
	C45.038795,89.218246 45.031288,87.468094 45.084587,85.283669 
	C45.267185,84.725578 45.388969,84.601753 45.708351,84.647705 
z"/>
<path fill="#72694B" opacity="1.000000" stroke="none" 
	d="
M303.905273,77.376793 
	C303.910553,76.239243 303.948578,75.480347 304.004181,74.341614 
	C305.842896,75.678375 304.999847,77.672340 304.287598,79.828171 
	C303.955688,79.276680 303.946869,78.516060 303.905273,77.376793 
z"/>
<path fill="#FFFFFF" opacity="1.000000" stroke="none" 
	d="
M131.932526,76.517761 
	C131.896652,76.939163 131.516037,76.999771 131.516037,76.999771 
	C131.516037,76.999771 131.166519,76.904900 131.036835,76.933899 
	C131.035110,75.374283 131.163055,73.785675 131.654236,72.026245 
	C132.001114,73.269066 131.984756,74.682709 131.932526,76.517761 
z"/>
<path fill="#888166" opacity="1.000000" stroke="none" 
	d="
M127.649719,108.176590 
	C127.880875,109.781052 127.780251,111.596008 127.387924,113.653580 
	C127.170135,112.059822 127.244034,110.223450 127.649719,108.176590 
z"/>
<path fill="#888166" opacity="1.000000" stroke="none" 
	d="
M155.622620,121.084076 
	C155.875793,122.662239 155.777374,124.420227 155.461548,126.464417 
	C155.253082,124.921722 155.262054,123.092812 155.622620,121.084076 
z"/>
<path fill="#BB7C7E" opacity="1.000000" stroke="none" 
	d="
M299.671082,46.118164 
	C299.980499,47.662224 299.950592,49.388649 299.951691,51.545155 
	C298.344971,50.246635 299.108734,48.242569 299.671082,46.118164 
z"/>
<path fill="#FFFFFF" opacity="1.000000" stroke="none" 
	d="
M173.945465,116.531250 
	C172.055786,115.528275 173.406052,113.553040 173.013733,111.489212 
	C174.988632,112.453041 173.551132,114.469940 173.945465,116.531250 
z"/>
<path fill="#F5F5E9" opacity="1.000000" stroke="none" 
	d="
M345.398682,44.855267 
	C345.009186,43.573578 344.991425,42.200932 344.989258,40.415665 
	C346.902130,41.326092 345.807617,43.130211 345.398682,44.855267 
z"/>
<path fill="#B8B7B2" opacity="1.000000" stroke="none" 
	d="
M57.043533,114.581421 
	C58.466419,115.374214 57.734177,116.952164 57.988377,118.702820 
	C57.839787,119.053772 57.671261,119.030960 57.247818,119.016602 
	C56.992901,119.025047 57.126286,119.038300 57.144882,118.973907 
	C56.749535,118.636353 56.528122,118.257668 56.567665,117.404945 
	C56.726566,116.347054 56.849003,115.640144 57.043533,114.581421 
z"/>
<path fill="#98927B" opacity="1.000000" stroke="none" 
	d="
M150.933014,139.514709 
	C149.352158,138.775833 150.189957,137.135361 149.990509,135.338226 
	C151.826263,135.993484 150.721359,137.720200 150.933014,139.514709 
z"/>
<path fill="#B8B7B2" opacity="1.000000" stroke="none" 
	d="
M128.926666,92.394257 
	C130.850830,93.206306 129.889038,94.981033 129.404266,96.758057 
	C129.040482,95.543030 129.012207,94.172478 128.926666,92.394257 
z"/>
<path fill="#964F52" opacity="1.000000" stroke="none" 
	d="
M327.620667,162.150299 
	C327.847229,163.409973 327.748169,164.856262 327.404877,166.556030 
	C327.205414,165.318649 327.250214,163.827774 327.620667,162.150299 
z"/>
<path fill="#FFFFFF" opacity="1.000000" stroke="none" 
	d="
M148.095612,166.361572 
	C149.368149,165.993347 150.763916,165.990585 152.577438,165.993408 
	C151.655151,167.895325 149.860977,166.812500 148.095612,166.361572 
z"/>
<path fill="#B8B7B2" opacity="1.000000" stroke="none" 
	d="
M75.215950,171.358871 
	C76.441460,171.020279 77.778397,171.032883 79.516113,171.025665 
	C78.632896,172.842865 76.899384,171.750168 75.215950,171.358871 
z"/>
<path fill="#98927B" opacity="1.000000" stroke="none" 
	d="
M235.144958,133.358826 
	C236.393112,133.013000 237.773163,133.019333 239.566681,133.015228 
	C238.647934,134.808868 236.909912,133.910339 235.144958,133.358826 
z"/>
<path fill="#98927B" opacity="1.000000" stroke="none" 
	d="
M261.898254,195.669464 
	C260.655426,195.896835 259.233887,195.794067 257.554993,195.455750 
	C258.779938,194.949966 260.259705,194.774567 261.898254,195.669464 
z"/>
<path fill="#F5F5E9" opacity="1.000000" stroke="none" 
	d="
M45.937794,84.412338 
	C45.905952,84.817474 45.527096,84.867142 45.336246,84.858276 
	C45.187523,83.295296 45.229645,81.741180 45.640327,80.053085 
	C45.995804,81.281799 45.982719,82.644501 45.937794,84.412338 
z"/>
<path fill="#98927B" opacity="1.000000" stroke="none" 
	d="
M57.982903,119.367874 
	C59.482903,120.110573 58.744213,121.792374 58.972153,123.637009 
	C57.219612,122.931023 58.372768,121.178230 57.982903,119.367874 
z"/>
<path fill="#B8B7B2" opacity="1.000000" stroke="none" 
	d="
M72.863266,123.334106 
	C71.433029,122.603645 72.095047,121.072670 71.980896,119.351669 
	C73.986183,119.928085 72.734535,121.612709 72.863266,123.334106 
z"/>
<path fill="#72694B" opacity="1.000000" stroke="none" 
	d="
M293.426575,70.163216 
	C292.601959,71.353821 291.060303,70.763977 289.309357,71.006760 
	C289.989655,69.223885 291.685181,70.445366 293.426575,70.163216 
z"/>
<path fill="#D0D0CD" opacity="1.000000" stroke="none" 
	d="
M156.662170,113.009285 
	C156.939072,114.398132 156.864197,115.968010 156.439819,117.710152 
	C156.163681,116.318382 156.237045,114.754349 156.662170,113.009285 
z"/>
<path fill="#888166" opacity="1.000000" stroke="none" 
	d="
M263.340729,157.793213 
	C263.018158,156.576767 263.024078,155.203339 263.026855,153.417419 
	C264.664062,154.350067 263.916656,156.028000 263.340729,157.793213 
z"/>
<path fill="#98927B" opacity="1.000000" stroke="none" 
	d="
M88.336288,148.850525 
	C87.983521,147.618271 87.982132,146.222473 88.003433,144.408539 
	C88.185028,143.875427 88.343925,143.760468 88.708633,143.855713 
	C88.838852,145.606277 88.763260,147.146622 88.336288,148.850525 
z"/>
<path fill="#F5F5E9" opacity="1.000000" stroke="none" 
	d="
M138.088989,148.558167 
	C139.680176,149.258011 138.690750,150.914597 139.028534,152.642105 
	C136.932907,152.072433 138.444687,150.283752 138.088989,148.558167 
z"/>
<path fill="#F5F5E9" opacity="1.000000" stroke="none" 
	d="
M185.289993,142.098068 
	C184.940521,141.887848 184.886581,141.697418 184.808472,141.210266 
	C184.784286,140.913513 185.051910,140.647141 185.076401,140.460846 
	C187.261261,139.502167 186.997772,141.031982 187.012070,142.676834 
	C186.532806,142.746658 186.059158,142.432266 185.289993,142.098068 
z"/>
<path fill="#D0D0CD" opacity="1.000000" stroke="none" 
	d="
M172.956909,103.502472 
	C171.124969,102.869072 172.348312,101.173660 172.040009,99.444305 
	C173.895157,100.067612 172.608475,101.782967 172.956909,103.502472 
z"/>
<path fill="#BB7C7E" opacity="1.000000" stroke="none" 
	d="
M304.802856,45.609756 
	C303.577362,45.953064 302.177155,45.974499 300.356476,46.002460 
	C301.259399,44.202843 303.010986,45.182625 304.802856,45.609756 
z"/>
<path fill="#524835" opacity="1.000000" stroke="none" 
	d="
M262.238007,151.966980 
	C261.999664,150.538651 261.992584,149.121765 262.010315,147.276031 
	C263.764160,147.979736 262.764832,149.720016 262.966858,151.578995 
	C262.932373,151.972977 262.469269,151.978394 262.238007,151.966980 
z"/>
<path fill="#98927B" opacity="1.000000" stroke="none" 
	d="
M376.844513,103.651520 
	C375.575836,104.014580 374.142090,104.037071 372.276489,104.047729 
	C373.216431,102.195061 375.006500,103.143517 376.844513,103.651520 
z"/>
<path fill="#B8B7B2" opacity="1.000000" stroke="none" 
	d="
M157.651306,108.189835 
	C157.886749,109.244911 157.777664,110.423134 157.358871,111.771866 
	C157.135040,110.732574 157.220901,109.522774 157.651306,108.189835 
z"/>
<path fill="#B8B7B2" opacity="1.000000" stroke="none" 
	d="
M132.643021,67.065758 
	C132.912308,68.222702 132.820999,69.523354 132.352524,70.933289 
	C132.077713,69.764862 132.180054,68.487167 132.643021,67.065758 
z"/>
<path fill="#964F52" opacity="1.000000" stroke="none" 
	d="
M334.607819,50.959251 
	C334.851288,52.004807 334.741180,53.209465 334.389282,54.683685 
	C334.183136,53.674953 334.218689,52.396656 334.607819,50.959251 
z"/>
<path fill="#54450F" opacity="1.000000" stroke="none" 
	d="
M286.730408,192.073669 
	C286.958496,192.146820 286.965851,192.319016 286.963623,192.749664 
	C286.954071,193.008133 286.468597,192.992523 286.226135,192.978317 
	C286.057953,192.633118 286.233307,192.369324 286.730408,192.073669 
z"/>
<path fill="#504A3F" opacity="1.000000" stroke="none" 
	d="
M88.958427,143.797760 
	C88.914444,144.065918 88.474274,143.978134 88.250206,143.984253 
	C88.094017,143.667801 88.258675,143.406143 88.730042,143.097580 
	C88.960793,143.169708 88.981606,143.349670 88.958427,143.797760 
z"/>
<path fill="#524C49" opacity="1.000000" stroke="none" 
	d="
M380.195618,111.954559 
	C380.075409,111.770424 380.223450,111.526512 380.620850,111.211029 
	C380.814209,111.429207 380.678772,111.680977 380.195618,111.954559 
z"/>
<path fill="#524D46" opacity="1.000000" stroke="none" 
	d="
M204.213486,151.956390 
	C204.063644,151.740997 204.221283,151.478622 204.668701,151.154877 
	C204.876846,151.394150 204.731018,151.666122 204.213486,151.956390 
z"/>
<path fill="#51493A" opacity="1.000000" stroke="none" 
	d="
M109.008774,125.978470 
	C107.661980,129.572006 107.541138,133.177856 105.510345,136.105652 
	C104.952621,136.909729 104.471275,137.984131 103.270348,137.715393 
	C102.058640,137.444229 102.072029,136.313263 102.014374,135.312943 
	C101.520882,126.750893 104.272476,119.038414 108.235519,111.652153 
	C108.724304,110.741173 109.538857,110.005142 110.640816,110.249550 
	C112.161453,110.586807 112.085777,111.960121 111.953125,113.070572 
	C111.443428,117.337784 110.441147,121.502777 109.008774,125.978470 
z"/>
<path fill="#671F03" opacity="1.000000" stroke="none" 
	d="
M99.389648,146.988983 
	C96.998978,146.750000 97.023468,145.249390 96.908005,143.459015 
	C97.076668,141.151840 97.313881,139.114136 100.046539,140.746414 
	C101.264931,141.474213 102.235733,142.061859 103.558632,140.990158 
	C105.076752,139.760315 107.047386,139.564758 107.441261,141.682678 
	C107.800697,143.615402 107.299263,146.148071 104.724541,146.789078 
	C103.171524,147.175720 101.463257,146.938812 99.389648,146.988983 
z"/>
<path fill="#602C05" opacity="1.000000" stroke="none" 
	d="
M156.694580,156.985687 
	C156.219681,161.194122 152.905090,159.821884 150.300049,160.025070 
	C148.048813,160.200653 146.890045,159.150711 146.888596,156.448761 
	C150.013596,156.063522 153.230469,155.586823 156.694580,156.985687 
z"/>
<path fill="#514526" opacity="1.000000" stroke="none" 
	d="
M181.725052,141.046051 
	C178.918747,146.659851 174.205948,146.875412 169.077515,141.314728 
	C169.755692,140.989960 170.475891,141.007202 171.556717,141.030838 
	C174.396759,141.270050 176.877548,141.835953 179.697784,141.016266 
	C180.491592,141.026566 180.940140,141.026962 181.725052,141.046051 
z"/>
<path fill="#602C05" opacity="1.000000" stroke="none" 
	d="
M179.943481,140.648056 
	C177.700989,144.041855 175.076889,143.630600 172.120972,141.349335 
	C174.266800,137.757233 176.992493,138.364075 179.943481,140.648056 
z"/>
<path fill="#5B3504" opacity="1.000000" stroke="none" 
	d="
M129.015137,146.011810 
	C128.371384,146.019012 127.709557,146.052155 127.054031,146.002289 
	C125.477013,145.882355 123.638626,146.475250 122.636452,144.631989 
	C122.250427,143.921997 122.734482,143.176056 123.405518,143.203278 
	C125.445366,143.286072 128.217911,141.594574 128.999481,145.631531 
	C129.024109,146.030304 128.999924,146.000000 129.015137,146.011810 
z"/>
<path fill="#602C05" opacity="1.000000" stroke="none" 
	d="
M193.288391,99.775673 
	C191.717316,101.354462 190.417572,101.176407 189.494263,99.523132 
	C189.015198,98.665291 189.564316,97.862663 190.362564,97.485458 
	C192.368912,96.537354 193.038742,97.810570 193.288391,99.775673 
z"/>
<path fill="#534216" opacity="1.000000" stroke="none" 
	d="
M136.360245,75.932831 
	C136.161972,74.509918 136.312347,73.013824 136.729752,71.257843 
	C138.327576,72.703018 138.688644,74.350639 136.360245,75.932831 
z"/>
<path fill="#000000" opacity="1.000000" stroke="none" 
	d="
M198.687653,119.746124 
	C198.998276,122.323326 198.997116,124.676659 198.959167,127.468117 
	C198.783371,128.055801 198.644394,128.205353 198.261658,128.169510 
	C198.003616,127.795929 197.989334,127.607727 197.918640,127.142067 
	C197.206421,125.202766 197.598877,123.478661 197.746124,121.393692 
	C197.931976,121.007233 198.018524,120.594948 197.996078,120.385513 
	C198.107712,119.958130 198.241806,119.740189 198.687653,119.746124 
z"/>
<path fill="#72694B" opacity="1.000000" stroke="none" 
	d="
M197.672668,121.254501 
	C197.939667,122.684357 197.947357,124.361473 197.908646,126.451607 
	C196.433960,125.184021 196.953796,123.340378 197.672668,121.254501 
z"/>
<path fill="#888166" opacity="1.000000" stroke="none" 
	d="
M198.011673,128.317505 
	C198.017899,127.984138 198.474106,127.991394 198.698242,127.948822 
	C200.018738,128.578705 200.229813,129.439331 199.240692,130.706284 
	C198.092941,130.412445 197.972900,129.565506 198.011673,128.317505 
z"/>
<path fill="#514526" opacity="1.000000" stroke="none" 
	d="
M166.201431,137.638947 
	C165.912415,137.935211 165.734528,137.959351 165.288300,138.003021 
	C165.140808,137.114975 164.633698,135.651184 165.904556,135.577042 
	C167.137909,135.505066 166.558838,136.653091 166.201431,137.638947 
z"/>
<path fill="#534216" opacity="1.000000" stroke="none" 
	d="
M140.783463,44.168686 
	C141.349472,44.459435 141.668716,44.918732 142.029236,45.666286 
	C141.616211,45.970234 141.161926,45.985924 140.367920,46.004944 
	C140.197693,45.451256 140.367188,44.894245 140.783463,44.168686 
z"/>
<path fill="#5B3504" opacity="1.000000" stroke="none" 
	d="
M180.016281,66.981293 
	C180.033981,67.911591 180.033981,68.853271 180.033981,69.987518 
	C178.449234,69.113487 179.132462,68.231972 179.780365,67.165405 
	C180.023560,66.952560 179.998581,66.992676 180.016281,66.981293 
z"/>
<path fill="#5B3504" opacity="1.000000" stroke="none" 
	d="
M177.375854,72.445312 
	C176.596375,72.665390 176.313400,72.393761 176.433777,71.788109 
	C176.458771,71.662407 176.636902,71.493378 176.763977,71.474274 
	C177.374359,71.382469 177.632309,71.677818 177.375854,72.445312 
z"/>
<path fill="#534216" opacity="1.000000" stroke="none" 
	d="
M137.441116,63.956234 
	C137.090042,63.104565 137.341385,62.362064 138.605453,61.952007 
	C138.932022,62.774754 138.753998,63.569271 137.441116,63.956234 
z"/>
<path fill="#B8B7B2" opacity="1.000000" stroke="none" 
	d="
M198.999237,119.582451 
	C198.826126,119.992325 198.652817,120.014664 198.226562,120.106537 
	C197.911087,119.992348 197.848526,119.808617 197.687469,119.350937 
	C197.582199,118.884331 197.575409,118.691689 197.775452,118.297005 
	C198.003677,117.771622 198.106812,117.476875 198.475739,117.062378 
	C198.772888,117.674316 198.885971,118.434608 198.999237,119.582451 
z"/>
<path fill="#514526" opacity="1.000000" stroke="none" 
	d="
M163.715485,144.149704 
	C163.917816,144.436462 163.921570,144.876984 163.895020,145.645844 
	C163.221313,145.527069 162.990982,144.993973 163.715485,144.149704 
z"/>
<path fill="#72694B" opacity="1.000000" stroke="none" 
	d="
M197.741730,118.073410 
	C197.939667,118.267670 197.897018,118.440369 197.721664,118.845024 
	C197.308517,118.921486 197.125153,118.689285 197.036926,118.152893 
	C197.034988,117.925392 197.501175,118.051849 197.741730,118.073410 
z"/>
<path fill="#524835" opacity="1.000000" stroke="none" 
	d="
M60.927536,107.634674 
	C57.166477,107.564552 58.483276,110.892067 57.261436,112.752609 
	C54.338497,107.060387 57.478004,101.458679 57.794281,95.641747 
	C59.920345,99.302040 60.408798,103.266418 60.927536,107.634674 
z"/>
<path fill="#5B3504" opacity="1.000000" stroke="none" 
	d="
M84.009727,161.671387 
	C83.831726,162.580673 83.636917,163.117599 83.199142,163.818542 
	C81.998947,163.833420 80.901245,163.929352 80.116409,163.479492 
	C78.840950,162.748367 76.060539,163.723099 76.402100,161.370285 
	C76.706154,159.275879 79.442528,159.272430 81.135857,158.593262 
	C83.417610,157.678101 83.803596,159.566833 84.009727,161.671387 
z"/>
<path fill="#524835" opacity="1.000000" stroke="none" 
	d="
M64.959747,129.621704 
	C62.414478,128.187210 62.294693,125.397675 62.078911,122.274506 
	C65.275948,123.466187 64.760391,126.482620 64.959747,129.621704 
z"/>
<path fill="#524835" opacity="1.000000" stroke="none" 
	d="
M66.917435,138.674103 
	C64.876480,138.714081 65.014969,137.172607 65.018738,135.339188 
	C67.102402,135.250305 66.977104,136.802994 66.917435,138.674103 
z"/>
<path fill="#524835" opacity="1.000000" stroke="none" 
	d="
M70.945526,155.687592 
	C69.462448,155.723343 67.893593,155.499161 68.867867,153.140686 
	C70.537308,153.131607 71.018684,154.027817 70.945526,155.687592 
z"/>
<path fill="#524835" opacity="1.000000" stroke="none" 
	d="
M61.935455,112.733917 
	C61.043396,112.820412 59.955353,112.765488 60.793621,111.168686 
	C61.321297,111.476646 61.628799,111.955498 61.935455,112.733917 
z"/>
<path fill="#524835" opacity="1.000000" stroke="none" 
	d="
M68.888794,146.727570 
	C68.012665,146.905365 67.267387,146.588715 67.084923,145.245239 
	C67.948380,145.079865 68.705826,145.386185 68.888794,146.727570 
z"/>
<path fill="#524835" opacity="1.000000" stroke="none" 
	d="
M62.275475,117.850342 
	C61.366001,117.595551 61.011696,117.080261 61.801659,116.147827 
	C62.686016,116.423958 62.980358,116.950623 62.275475,117.850342 
z"/>
<path fill="#524835" opacity="1.000000" stroke="none" 
	d="
M56.443367,117.248383 
	C56.726562,117.465851 56.848995,117.877754 57.067451,118.599579 
	C56.387444,118.710342 56.029408,118.260124 56.443367,117.248383 
z"/>
<path fill="#524835" opacity="1.000000" stroke="none" 
	d="
M64.981430,132.754364 
	C64.866829,132.734238 64.762840,132.458725 64.810699,132.085907 
	C64.972374,132.158722 64.982201,132.328857 64.981430,132.754364 
z"/>
<path fill="#524835" opacity="1.000000" stroke="none" 
	d="
M72.927559,162.756836 
	C72.699135,162.876709 72.438171,162.680511 72.162636,162.155365 
	C72.385017,162.053955 72.633995,162.258743 72.927559,162.756836 
z"/>
<path fill="#5B3504" opacity="1.000000" stroke="none" 
	d="
M284.992584,200.736710 
	C277.219696,203.155869 269.271820,203.118408 261.292480,203.042480 
	C255.767715,202.989914 251.583557,200.441910 247.470520,197.038879 
	C248.881561,195.458694 250.416687,195.729736 251.273209,196.491119 
	C256.214325,200.883392 262.487946,199.950912 268.256531,200.959686 
	C273.046417,201.797302 277.389923,199.713303 281.655548,198.110336 
	C283.677399,197.350571 284.321228,197.548172 284.960358,199.660599 
	C285.001221,200.000000 284.993713,200.491119 284.992584,200.736710 
z"/>
<path fill="#602C05" opacity="1.000000" stroke="none" 
	d="
M265.237122,90.708618 
	C263.256989,90.920067 261.597931,90.910980 259.524597,90.887108 
	C258.292175,90.175964 257.098663,89.876617 256.872650,88.345337 
	C257.556488,86.494492 255.278595,84.353889 257.772858,83.312401 
	C259.785461,82.472023 260.485474,84.479736 261.580017,85.568329 
	C262.763916,86.745819 265.096375,86.858673 264.966217,89.613098 
	C265.166626,90.146881 265.362427,90.317482 265.237122,90.708618 
z"/>
<path fill="#5B3812" opacity="1.000000" stroke="none" 
	d="
M268.504456,116.997711 
	C266.860138,114.649971 265.125183,112.410255 266.706299,109.239296 
	C268.219116,110.044670 269.459930,111.122162 270.733032,112.160027 
	C271.865204,113.083038 273.435364,113.813736 272.758759,115.670822 
	C272.063263,117.579659 270.277618,116.801079 268.504456,116.997711 
z"/>
<path fill="#514526" opacity="1.000000" stroke="none" 
	d="
M256.619141,87.973343 
	C257.637939,88.780769 258.301849,89.531960 259.038055,90.577744 
	C258.621643,90.914436 258.132904,90.956535 257.277161,91.006203 
	C254.828171,92.297432 253.441742,91.157684 252.050018,89.269119 
	C252.298126,86.179947 251.090836,82.995811 254.658737,81.095215 
	C255.609909,83.299393 251.968796,86.323189 256.619141,87.973343 
z"/>
<path fill="#54450F" opacity="1.000000" stroke="none" 
	d="
M293.718628,199.036621 
	C293.117462,200.767639 291.406372,201.358398 289.336487,201.953461 
	C289.445465,199.531418 291.366028,199.236969 293.718628,199.036621 
z"/>
<path fill="#514526" opacity="1.000000" stroke="none" 
	d="
M283.315796,88.843307 
	C282.825623,88.441124 282.636810,87.876060 282.209015,87.120605 
	C282.222595,85.635979 282.943329,84.516365 284.229309,85.485329 
	C285.679688,86.578125 284.647797,87.757629 283.315796,88.843307 
z"/>
<path fill="#54450F" opacity="1.000000" stroke="none" 
	d="
M301.366394,184.993378 
	C301.465363,183.956497 302.198730,183.249374 303.667603,183.000397 
	C303.917328,184.406189 303.092499,185.003937 301.366394,184.993378 
z"/>
<path fill="#514526" opacity="1.000000" stroke="none" 
	d="
M270.826233,89.778801 
	C270.516998,90.300446 270.033997,90.608482 269.248901,90.910919 
	C269.177277,90.028267 269.259369,88.962456 270.826233,89.778801 
z"/>
<path fill="#514526" opacity="1.000000" stroke="none" 
	d="
M265.264465,90.957809 
	C264.916046,90.929161 264.948395,90.453300 264.959625,90.214790 
	C265.529083,90.150284 266.087341,90.324287 266.826935,90.732368 
	C266.543182,90.973114 266.078033,90.979782 265.264465,90.957809 
z"/>
<path fill="#000000" opacity="1.000000" stroke="none" 
	d="
M239.209015,159.385391 
	C237.916397,158.996704 236.874939,158.879807 235.439896,158.740753 
	C235.284439,158.029221 235.522552,157.339844 235.902832,156.405060 
	C236.419235,153.401321 238.221161,151.784012 240.827362,150.328522 
	C245.633026,148.637848 248.945007,149.856720 250.739944,154.059647 
	C252.200272,157.479065 251.630142,160.504929 247.400818,162.112885 
	C246.519852,161.736877 246.034668,161.420975 245.279388,160.996811 
	C242.903061,161.634079 241.258362,160.299759 239.209015,159.385391 
z"/>
<path fill="#535050" opacity="1.000000" stroke="none" 
	d="
M247.221130,162.314484 
	C249.801880,160.276291 251.574646,157.651123 249.709290,154.692520 
	C248.098190,152.137177 246.023605,148.741318 241.425171,150.984406 
	C240.621155,151.273117 240.241211,151.205597 239.973816,150.436035 
	C241.986832,146.574570 245.268250,145.295410 248.746002,146.624832 
	C252.660477,148.121155 254.447784,152.201782 253.533508,155.838333 
	C252.879150,158.440994 252.637985,163.295837 247.221130,162.314484 
z"/>
<path fill="#5B3812" opacity="1.000000" stroke="none" 
	d="
M238.780273,159.436417 
	C240.901962,159.103287 243.033569,158.272110 244.751740,160.633423 
	C245.038834,163.248413 241.531265,163.629440 242.007935,166.607483 
	C243.849030,169.693939 247.294052,167.755295 249.718430,169.762619 
	C250.242706,170.197006 250.513977,170.400024 250.905457,170.831726 
	C247.458191,173.095673 240.166412,172.310562 237.992447,169.011124 
	C236.104156,166.145233 236.202164,162.700623 238.780273,159.436417 
z"/>
<path fill="#671F03" opacity="1.000000" stroke="none" 
	d="
M249.970459,169.588867 
	C247.087494,169.382660 243.312073,171.703629 241.771591,167.201599 
	C244.590012,167.953583 248.330185,164.784286 249.970459,169.588867 
z"/>
<path fill="#605F5F" opacity="1.000000" stroke="none" 
	d="
M239.661621,150.106461 
	C240.131165,150.406647 240.337570,150.650574 240.848083,150.926926 
	C240.279266,153.263062 237.045334,153.204498 236.329651,155.968079 
	C235.355179,153.182068 236.502747,151.199646 239.661621,150.106461 
z"/>
<path fill="#51493A" opacity="1.000000" stroke="none" 
	d="
M324.404358,87.429291 
	C325.776123,87.158539 327.038513,87.185936 326.445557,88.672668 
	C324.335846,93.962593 321.089325,98.541359 316.871857,102.344162 
	C315.775024,103.333168 314.031006,104.863960 312.545044,103.160492 
	C311.385864,101.831627 312.262665,100.153015 312.934631,98.535530 
	C315.127380,93.257607 319.631348,90.472733 324.404358,87.429291 
z"/>
<path fill="#602C05" opacity="1.000000" stroke="none" 
	d="
M316.037079,111.646942 
	C315.970856,111.981216 315.509155,112.007668 315.278503,112.011551 
	C313.011322,112.102127 311.125885,111.873268 309.632446,110.195847 
	C308.503967,108.928368 305.889038,108.022247 307.507477,105.986137 
	C308.833252,104.318245 309.868927,106.776611 311.026093,107.375847 
	C311.994629,107.877396 312.871918,107.868462 313.871582,107.569672 
	C315.402191,107.112160 317.359406,106.103134 318.313904,107.891731 
	C319.200806,109.553658 316.333618,109.791847 316.037079,111.646942 
z"/>
<path fill="#5B3504" opacity="1.000000" stroke="none" 
	d="
M351.625610,111.995575 
	C352.815094,114.352722 355.966675,114.039398 356.952454,116.598000 
	C357.385773,117.327026 357.530121,117.799278 357.225159,118.661667 
	C353.166290,119.288849 351.110474,116.386642 348.294556,114.156708 
	C348.201080,111.912148 349.757996,112.006866 351.625610,111.995575 
z"/>
<path fill="#544514" opacity="1.000000" stroke="none" 
	d="
M344.966980,113.659271 
	C344.442108,113.485252 343.867950,113.004402 343.194489,112.256165 
	C343.963745,112.094398 344.672974,112.413048 344.966980,113.659271 
z"/>
<path fill="#000000" opacity="1.000000" stroke="none" 
	d="
M267.468567,94.670502 
	C269.959595,95.396309 271.841888,94.577766 274.101837,93.952293 
	C268.820618,99.459358 264.868561,105.695595 260.449005,111.884598 
	C260.103455,111.925537 260.032043,111.959717 260.049377,111.995300 
	C257.668976,110.904778 255.145340,111.708321 252.400604,111.796722 
	C247.398468,114.197746 244.444061,119.299179 238.462067,119.965866 
	C236.428864,116.689384 239.399963,115.827942 241.111069,114.765091 
	C247.445435,110.830490 252.794968,105.989883 256.821411,99.248184 
	C257.963898,98.438820 257.988312,97.551682 257.965332,96.318359 
	C258.769043,94.615349 260.145020,95.071747 261.720703,94.899208 
	C263.721619,94.214813 265.409241,94.606697 267.468567,94.670502 
z"/>
<path fill="#51493A" opacity="1.000000" stroke="none" 
	d="
M256.732666,99.031906 
	C255.772461,106.721352 249.432236,110.269287 244.067673,114.597649 
	C242.098984,116.186073 239.184082,116.554680 238.068207,119.597672 
	C234.997513,118.356384 234.443192,115.187363 237.744141,113.532936 
	C244.991730,109.900452 250.474548,104.269211 256.732666,99.031906 
z"/>
<path fill="#504A3F" opacity="1.000000" stroke="none" 
	d="
M246.642975,100.649330 
	C244.943756,102.002098 243.543350,103.159439 242.150162,104.325409 
	C241.408005,104.946564 240.626862,106.079781 239.647614,105.363548 
	C238.567154,104.573303 238.932266,103.246506 239.525238,102.183784 
	C240.595825,100.265091 242.276611,98.915962 243.919495,97.506889 
	C245.593613,96.071014 247.824722,95.026451 249.197861,96.673912 
	C250.495163,98.230362 247.913742,99.255974 246.642975,100.649330 
z"/>
<path fill="#5B3504" opacity="1.000000" stroke="none" 
	d="
M251.614594,88.908676 
	C253.374329,89.573845 254.809341,90.260162 256.577209,90.980125 
	C256.925598,92.068794 256.941101,93.123817 256.923065,94.572723 
	C251.792786,96.075722 250.862183,95.373108 249.993286,89.371948 
	C250.421555,88.963028 250.855728,88.946426 251.614594,88.908676 
z"/>
<path fill="#F5F5E9" opacity="1.000000" stroke="none" 
	d="
M252.553436,112.046707 
	C254.466721,109.843407 257.203888,111.342010 259.920288,111.636902 
	C257.707855,112.036980 255.349014,112.043083 252.553436,112.046707 
z"/>
<path fill="#514526" opacity="1.000000" stroke="none" 
	d="
M237.296448,95.940056 
	C237.078018,95.083313 237.354858,94.315430 238.684540,94.045013 
	C238.913956,94.908104 238.640610,95.678406 237.296448,95.940056 
z"/>
<path fill="#605F5F" opacity="1.000000" stroke="none" 
	d="
M267.610229,94.570145 
	C266.218079,94.847168 264.567993,94.897636 262.507446,94.898758 
	C263.733917,93.487389 265.546356,93.949242 267.610229,94.570145 
z"/>
<path fill="#000000" opacity="1.000000" stroke="none" 
	d="
M306.698883,196.954254 
	C303.178986,203.606201 296.887970,206.018234 289.358002,206.980042 
	C294.736969,203.594604 300.533905,200.236679 306.698883,196.954254 
z"/>
<path fill="#000000" opacity="1.000000" stroke="none" 
	d="
M310.709198,192.962158 
	C310.843872,195.076202 310.664978,197.153412 307.388123,196.964355 
	C306.992218,194.758041 308.746399,193.882324 310.709198,192.962158 
z"/>
<path fill="#671F03" opacity="1.000000" stroke="none" 
	d="
M357.439880,118.992813 
	C357.003510,118.525162 357.000977,118.068939 357.004700,117.268982 
	C359.406799,117.242424 361.901276,116.491692 364.624603,117.670082 
	C362.541687,120.013664 360.000916,118.579277 357.439880,118.992813 
z"/>
<path fill="#000000" opacity="1.000000" stroke="none" 
	d="
M317.443207,64.100929 
	C311.716492,61.586960 307.887573,57.395454 304.469482,52.765396 
	C303.959229,52.074230 303.797150,51.145863 304.521912,50.496853 
	C305.332794,49.770760 306.080872,50.518715 306.728699,50.927956 
	C311.088745,53.682335 315.076721,56.816196 317.577118,61.837791 
	C318.657074,62.689716 318.482208,63.386688 317.443207,64.100929 
z"/>
<path fill="#BB7C7E" opacity="1.000000" stroke="none" 
	d="
M317.157135,64.399353 
	C317.346344,63.618168 317.659851,63.112316 317.926941,62.293499 
	C318.965790,62.398281 319.487122,63.411369 319.279785,64.327339 
	C319.058533,65.304916 318.062134,65.122894 317.157135,64.399353 
z"/>
</svg>